<?xml version="1.0" encoding="UTF-8" standalone="no"?>
<!-- Created with Inkscape (http://www.inkscape.org/) -->

<svg
   width="6.904068mm"
   height="8.6033306mm"
   viewBox="0 0 6.904068 8.6033306"
   version="1.1"
   id="svg5"
   inkscape:version="1.1 (c68e22c387, 2021-05-23)"
   sodipodi:docname="cart.svg"
   xmlns:inkscape="http://www.inkscape.org/namespaces/inkscape"
   xmlns:sodipodi="http://sodipodi.sourceforge.net/DTD/sodipodi-0.dtd"
   xmlns="http://www.w3.org/2000/svg"
   xmlns:svg="http://www.w3.org/2000/svg">
  <sodipodi:namedview
     id="namedview7"
     pagecolor="#ffffff"
     bordercolor="#666666"
     borderopacity="1.0"
     inkscape:pageshadow="2"
     inkscape:pageopacity="0.0"
     inkscape:pagecheckerboard="0"
     inkscape:document-units="mm"
     showgrid="false"
     inkscape:zoom="10.502163"
     inkscape:cx="3.8087394"
     inkscape:cy="12.56884"
     inkscape:window-width="1313"
     inkscape:window-height="699"
     inkscape:window-x="53"
     inkscape:window-y="32"
     inkscape:window-maximized="1"
     inkscape:current-layer="layer1" />
  <defs
     id="defs2" />
  <g
     inkscape:label="Layer 1"
     inkscape:groupmode="layer"
     id="layer1"
     transform="translate(-120.82052,-241.39315)">
    <path
       d="m 127.58129,249.86419 h -6.61459 l 0.66146,-6.61458 h 4.10104 1.32292 z"
       fill="#5386e4"
       id="path824"
       style="stroke-width:0.264583"
       inkscape:export-filename="/home/ayo/Downloads/path824.svg"
       inkscape:export-xdpi="96"
       inkscape:export-ydpi="96" />
    <path
       d="m 125.7292,243.24961 h 1.32292 l 0.52917,6.61458 h -6.61459 l 0.66146,-6.61458 z m 0,0 c -0.0756,-1.01772 -0.37174,-1.38982 -1.32291,-1.7198 -1.2479,0.24275 -1.51857,0.6365 -1.5875,1.5875"
       stroke="#5386e4"
       id="path826"
       style="fill:none;fill-opacity:1;stroke-width:0.264583"
       inkscape:export-filename="/home/ayo/Downloads/path824.svg"
       inkscape:export-xdpi="96"
       inkscape:export-ydpi="96" />
    <rect
       x="125.46462"
       y="243.2496"
       width="0.52916664"
       height="0.52916664"
       fill="#ffffff"
       id="rect828"
       style="stroke-width:0.264583"
       inkscape:export-filename="/home/ayo/Downloads/path824.svg"
       inkscape:export-xdpi="96"
       inkscape:export-ydpi="96" />
    <rect
       x="122.5542"
       y="243.2496"
       width="0.52916664"
       height="0.52916664"
       fill="#ffffff"
       id="rect830"
       style="stroke-width:0.264583"
       inkscape:export-filename="/home/ayo/Downloads/path824.svg"
       inkscape:export-xdpi="96"
       inkscape:export-ydpi="96" />
    <path
       d="m 124.80316,246.68919 c 0,0.27143 -0.069,0.51088 -0.17362,0.67823 -0.10578,0.16923 -0.23495,0.24781 -0.35555,0.24781 -0.12059,0 -0.24976,-0.0786 -0.35554,-0.24781 -0.10459,-0.16735 -0.17362,-0.4068 -0.17362,-0.67823 0,-0.27144 0.069,-0.51089 0.17362,-0.67823 0.10578,-0.16923 0.23495,-0.24781 0.35554,-0.24781 0.1206,0 0.24977,0.0786 0.35555,0.24781 0.10459,0.16734 0.17362,0.40679 0.17362,0.67823 z"
       stroke="#ffffff"
       id="path832"
       style="fill:none;stroke-width:0.264583"
       inkscape:export-filename="/home/ayo/Downloads/path824.svg"
       inkscape:export-xdpi="96"
       inkscape:export-ydpi="96" />
  </g>
</svg>
