<?xml version="1.0" encoding="UTF-8" standalone="no"?>
<!-- Created with Inkscape (http://www.inkscape.org/) -->

<svg
   width="5.3076315mm"
   height="3.9604666mm"
   viewBox="0 0 5.3076315 3.9604666"
   version="1.1"
   id="svg5"
   inkscape:version="1.1 (c68e22c387, 2021-05-23)"
   sodipodi:docname="quotes.svg"
   xmlns:inkscape="http://www.inkscape.org/namespaces/inkscape"
   xmlns:sodipodi="http://sodipodi.sourceforge.net/DTD/sodipodi-0.dtd"
   xmlns="http://www.w3.org/2000/svg"
   xmlns:svg="http://www.w3.org/2000/svg">
  <sodipodi:namedview
     id="namedview7"
     pagecolor="#ffffff"
     bordercolor="#666666"
     borderopacity="1.0"
     inkscape:pageshadow="2"
     inkscape:pageopacity="0.0"
     inkscape:pagecheckerboard="0"
     inkscape:document-units="mm"
     showgrid="false"
     inkscape:lockguides="true"
     inkscape:zoom="14.481547"
     inkscape:cx="3.7979368"
     inkscape:cy="9.9436892"
     inkscape:window-width="1313"
     inkscape:window-height="699"
     inkscape:window-x="53"
     inkscape:window-y="32"
     inkscape:window-maximized="1"
     inkscape:current-layer="layer1" />
  <defs
     id="defs2" />
  <g
     inkscape:label="Layer 1"
     inkscape:groupmode="layer"
     id="layer1"
     transform="translate(-117.62835,-99.489911)">
    <path
       d="m 118.83474,101.0694 c -0.059,0 -0.11562,0.009 -0.17198,0.0172 0.0183,-0.0614 0.037,-0.12382 0.0672,-0.17991 0.0302,-0.0815 0.0773,-0.15214 0.12409,-0.22331 0.0392,-0.077 0.10822,-0.12912 0.15902,-0.195 0.0532,-0.064 0.12568,-0.10663 0.18309,-0.15981 0.0564,-0.0556 0.13017,-0.0833 0.18891,-0.1225 0.0614,-0.0352 0.11483,-0.0741 0.17198,-0.0926 l 0.14261,-0.0587 0.12541,-0.0521 -0.12832,-0.512759 -0.15795,0.0381 c -0.0505,0.0127 -0.11219,0.02752 -0.1823,0.04524 -0.0717,0.01323 -0.14817,0.04948 -0.23337,0.08255 -0.0841,0.03757 -0.1815,0.06297 -0.27199,0.123296 -0.091,0.05768 -0.19605,0.105834 -0.28866,0.183092 -0.0897,0.07964 -0.19791,0.148701 -0.27781,0.250031 -0.0873,0.0947 -0.17357,0.19421 -0.24051,0.30745 -0.0775,0.10795 -0.13017,0.22648 -0.18573,0.34369 -0.0503,0.11721 -0.0908,0.23707 -0.12383,0.35349 -0.0627,0.23336 -0.0907,0.45508 -0.1016,0.64479 -0.009,0.18997 -0.004,0.34792 0.007,0.46222 0.004,0.054 0.0114,0.10637 0.0167,0.14261 l 0.007,0.0445 0.007,-0.002 c 0.0471,0.21982 0.15539,0.42183 0.31247,0.58267 0.15707,0.16082 0.35646,0.2739 0.57511,0.32613 0.21866,0.0523 0.44763,0.0415 0.66044,-0.031 0.2128,-0.0724 0.40075,-0.20367 0.54209,-0.37848 0.14133,-0.17482 0.23031,-0.38608 0.25658,-0.60934 0.0263,-0.22326 -0.0111,-0.4494 -0.108,-0.65228 -0.0969,-0.20285 -0.2492,-0.37414 -0.43935,-0.49408 -0.19015,-0.11991 -0.41037,-0.18353 -0.63517,-0.18352 z m 2.91041,0 c -0.059,0 -0.11562,0.009 -0.17198,0.0172 0.0183,-0.0614 0.037,-0.12382 0.0672,-0.17991 0.0302,-0.0815 0.0773,-0.15214 0.12408,-0.22331 0.0392,-0.077 0.10822,-0.12912 0.15902,-0.195 0.0532,-0.064 0.12568,-0.10663 0.18309,-0.15981 0.0564,-0.0556 0.13018,-0.0833 0.18891,-0.1225 0.0614,-0.0352 0.11483,-0.0741 0.17198,-0.0926 l 0.14261,-0.0587 0.12542,-0.0521 -0.12833,-0.512759 -0.15795,0.0381 c -0.0505,0.0127 -0.11219,0.02752 -0.1823,0.04524 -0.0717,0.01323 -0.14817,0.04948 -0.23336,0.08255 -0.0839,0.03784 -0.18151,0.06297 -0.272,0.12356 -0.091,0.05768 -0.19605,0.105833 -0.28866,0.183092 -0.0897,0.07964 -0.1979,0.148697 -0.27781,0.249767 -0.0873,0.0947 -0.17357,0.19421 -0.2405,0.30745 -0.0775,0.10795 -0.13018,0.22648 -0.18574,0.34369 -0.0503,0.11721 -0.0907,0.23707 -0.12383,0.35349 -0.0627,0.23336 -0.0907,0.45508 -0.1016,0.64479 -0.009,0.18997 -0.004,0.34792 0.007,0.46222 0.004,0.054 0.0114,0.10637 0.0167,0.14261 l 0.007,0.0445 0.007,-0.002 c 0.0471,0.21982 0.15539,0.42183 0.31248,0.58267 0.15705,0.16082 0.35647,0.2739 0.57512,0.32613 0.21865,0.0523 0.44762,0.0415 0.66043,-0.031 0.2128,-0.0724 0.40074,-0.20367 0.54208,-0.37848 0.14134,-0.17482 0.23032,-0.38608 0.25659,-0.60934 0.0263,-0.22326 -0.0111,-0.4494 -0.108,-0.65228 -0.0969,-0.20285 -0.24919,-0.37414 -0.43934,-0.49408 -0.19016,-0.11991 -0.41037,-0.18353 -0.63519,-0.18352 z"
       fill="#ffffff"
       id="path824"
       style="stroke-width:0.264583" />
  </g>
</svg>
