<?xml version="1.0" encoding="UTF-8" standalone="no"?>
<!-- Created with Inkscape (http://www.inkscape.org/) -->

<svg
   width="10.76368mm"
   height="8.7500868mm"
   viewBox="0 0 10.76368 8.7500868"
   version="1.1"
   id="svg5"
   inkscape:version="1.1 (c68e22c387, 2021-05-23)"
   sodipodi:docname="twitter.svg"
   xmlns:inkscape="http://www.inkscape.org/namespaces/inkscape"
   xmlns:sodipodi="http://sodipodi.sourceforge.net/DTD/sodipodi-0.dtd"
   xmlns="http://www.w3.org/2000/svg"
   xmlns:svg="http://www.w3.org/2000/svg">
  <sodipodi:namedview
     id="namedview7"
     pagecolor="#ffffff"
     bordercolor="#666666"
     borderopacity="1.0"
     inkscape:pageshadow="2"
     inkscape:pageopacity="0.0"
     inkscape:pagecheckerboard="0"
     inkscape:document-units="mm"
     showgrid="false"
     inkscape:zoom="0.2320672"
     inkscape:cx="-422.29147"
     inkscape:cy="-56.018257"
     inkscape:window-width="1313"
     inkscape:window-height="699"
     inkscape:window-x="53"
     inkscape:window-y="32"
     inkscape:window-maximized="1"
     inkscape:current-layer="layer1" />
  <defs
     id="defs2" />
  <g
     inkscape:label="Layer 1"
     inkscape:groupmode="layer"
     id="layer1"
     transform="translate(-150.81392,-183.74398)">
    <path
       d="m 161.5776,184.78184 c -0.39585,0.1754 -0.82106,0.29391 -1.2681,0.34747 0.46125,-0.27599 0.80635,-0.71037 0.97086,-1.22208 -0.43336,0.2574 -0.90762,0.43858 -1.40223,0.53567 -0.33259,-0.35513 -0.77314,-0.59051 -1.25323,-0.6696 -0.48006,-0.0791 -0.97285,0.003 -1.40179,0.23217 -0.42894,0.22966 -0.77007,0.59451 -0.97041,1.0379 -0.20034,0.44339 -0.24868,0.94054 -0.13753,1.41423 -0.87807,-0.0441 -1.7371,-0.27231 -2.52124,-0.66988 -0.78418,-0.39756 -1.47599,-0.95556 -2.03055,-1.63778 -0.18962,0.32709 -0.29865,0.70633 -0.29865,1.1102 -2.1e-4,0.36359 0.0893,0.72163 0.26067,1.0423 0.17134,0.32071 0.41919,0.59413 0.72155,0.79606 -0.35066,-0.0112 -0.69358,-0.10592 -1.00023,-0.27636 v 0.0284 c -4e-5,0.50993 0.17636,1.0042 0.49926,1.39891 0.32289,0.39468 0.7724,0.6655 1.27224,0.76652 -0.32529,0.088 -0.66634,0.10102 -0.99738,0.0379 0.14102,0.43878 0.41573,0.82248 0.78566,1.09738 0.36994,0.2749 0.81656,0.42725 1.27738,0.43569 -0.78226,0.61407 -1.74833,0.94718 -2.74282,0.94573 -0.17617,2e-5 -0.35219,-0.0102 -0.52714,-0.0308 1.00946,0.64905 2.18456,0.99351 3.38469,0.99219 4.06257,0 6.28345,-3.36478 6.28345,-6.28301 0,-0.0948 -0.002,-0.19055 -0.007,-0.28538 0.43202,-0.31239 0.80489,-0.69926 1.10123,-1.14244 l 9.5e-4,-0.001 z"
       fill="#010101"
       id="path934"
       style="stroke-width:0.264583" />
  </g>
</svg>
