<svg width="64" height="64" viewBox="0 0 64 64" fill="none" xmlns="http://www.w3.org/2000/svg">
<path d="M5.33301 31.9999C5.33301 24.9275 8.14252 18.1447 13.1435 13.1437C18.1445 8.14277 24.9272 5.33325 31.9997 5.33325C35.5016 5.33325 38.9692 6.02301 42.2046 7.36313C45.4399 8.70326 48.3796 10.6675 50.8559 13.1437C53.3321 15.62 55.2963 18.5597 56.6365 21.795C57.9766 25.0304 58.6663 28.498 58.6663 31.9999C58.6663 39.0724 55.8568 45.8551 50.8559 50.8561C45.8549 55.8571 39.0721 58.6666 31.9997 58.6666C28.4978 58.6666 25.0301 57.9768 21.7948 56.6367C18.5594 55.2966 15.6197 53.3323 13.1435 50.8561C8.14252 45.8551 5.33301 39.0724 5.33301 31.9999ZM47.9997 29.3333H26.6663L35.9997 19.9999L32.213 16.2133L16.4263 31.9999L32.213 47.7866L35.9997 43.9999L26.6663 34.6666H47.9997V29.3333Z" fill="white"/>
</svg>
