<svg width="64" height="64" viewBox="0 0 64 64" fill="none" xmlns="http://www.w3.org/2000/svg">
<path d="M57.7952 49.4758C56.0809 47.9475 54.58 46.1955 53.333 44.2669C51.9716 41.6047 51.1556 38.6975 50.933 35.7158V26.9335C50.9448 22.2502 49.2459 17.7237 46.1556 14.2046C43.0654 10.6855 38.7964 8.41596 34.1508 7.82243V5.52909C34.1508 4.89965 33.9007 4.29598 33.4556 3.8509C33.0105 3.40581 32.4069 3.15576 31.7774 3.15576C31.148 3.15576 30.5443 3.40581 30.0992 3.8509C29.6541 4.29598 29.4041 4.89965 29.4041 5.52909V7.85798C24.8001 8.4943 20.5827 10.7775 17.533 14.2848C14.4834 17.7921 12.8081 22.2858 12.8174 26.9335V35.7158C12.5948 38.6975 11.7788 41.6047 10.4174 44.2669C9.19233 46.191 7.71555 47.9429 6.02632 49.4758C5.83669 49.6424 5.6847 49.8474 5.58048 50.0773C5.47626 50.3072 5.42219 50.5567 5.42188 50.8091V53.2269C5.42188 53.6984 5.60918 54.1506 5.94257 54.4839C6.27597 54.8173 6.72816 55.0047 7.19965 55.0047H56.6219C57.0934 55.0047 57.5456 54.8173 57.879 54.4839C58.2124 54.1506 58.3997 53.6984 58.3997 53.2269V50.8091C58.3993 50.5567 58.3453 50.3072 58.241 50.0773C58.1368 49.8474 57.9848 49.6424 57.7952 49.4758ZM9.11965 51.4491C10.7737 49.8512 12.2301 48.0607 13.4574 46.1158C15.1723 42.9006 16.1729 39.3531 16.3908 35.7158V26.9335C16.3203 24.85 16.6697 22.7737 17.4184 20.8281C18.1671 18.8824 19.2996 17.1074 20.7485 15.6086C22.1975 14.1097 23.9332 12.9178 25.8524 12.1038C27.7716 11.2898 29.835 10.8703 31.9197 10.8703C34.0043 10.8703 36.0677 11.2898 37.9869 12.1038C39.9061 12.9178 41.6418 14.1097 43.0908 15.6086C44.5397 17.1074 45.6722 18.8824 46.4209 20.8281C47.1696 22.7737 47.5191 24.85 47.4485 26.9335V35.7158C47.6664 39.3531 48.667 42.9006 50.3819 46.1158C51.6093 48.0607 53.0656 49.8512 54.7197 51.4491H9.11965Z" fill="white"/>
<path d="M31.9998 60.942C33.1197 60.9162 34.1944 60.4952 35.0338 59.7534C35.8731 59.0116 36.4231 57.9969 36.5865 56.8887H27.2354C27.4033 58.027 27.979 59.0656 28.8554 59.8112C29.7319 60.5568 30.8493 60.9586 31.9998 60.942Z" fill="white"/>
</svg>
