<?xml version="1.0" encoding="UTF-8" standalone="no"?>
<!-- Created with Inkscape (http://www.inkscape.org/) -->

<svg
   width="5.093266mm"
   height="5.0932331mm"
   viewBox="0 0 5.093266 5.0932331"
   version="1.1"
   id="svg5"
   sodipodi:docname="instagram1.svg"
   inkscape:version="1.1 (c68e22c387, 2021-05-23)"
   xmlns:inkscape="http://www.inkscape.org/namespaces/inkscape"
   xmlns:sodipodi="http://sodipodi.sourceforge.net/DTD/sodipodi-0.dtd"
   xmlns="http://www.w3.org/2000/svg"
   xmlns:svg="http://www.w3.org/2000/svg">
  <sodipodi:namedview
     id="namedview7"
     pagecolor="#ffffff"
     bordercolor="#666666"
     borderopacity="1.0"
     inkscape:pageshadow="2"
     inkscape:pageopacity="0.0"
     inkscape:pagecheckerboard="0"
     inkscape:document-units="mm"
     showgrid="false"
     inkscape:zoom="0.65638516"
     inkscape:cx="-18.281949"
     inkscape:cy="36.563898"
     inkscape:window-width="1313"
     inkscape:window-height="699"
     inkscape:window-x="53"
     inkscape:window-y="32"
     inkscape:window-maximized="1"
     inkscape:current-layer="layer1"
     inkscape:lockguides="true" />
  <defs
     id="defs2" />
  <g
     inkscape:label="Layer 1"
     inkscape:groupmode="layer"
     id="layer1"
     transform="translate(-96.613914,-81.699526)">
    <path
       fill-rule="evenodd"
       clip-rule="evenodd"
       d="m 98.11063,81.714806 c 0.271561,-0.0125 0.358146,-0.01528 1.049899,-0.01528 0.691753,0 0.778351,0.003 1.049681,0.01528 0.27133,0.01227 0.45651,0.05556 0.61857,0.118303 0.1697,0.06413 0.32366,0.16437 0.45098,0.294015 0.12965,0.127101 0.22969,0.280824 0.29358,0.450752 0.063,0.162058 0.10602,0.347266 0.11854,0.618133 0.0125,0.272026 0.0153,0.358611 0.0153,1.050132 0,0.691753 -0.003,0.778324 -0.0153,1.049893 -0.0123,0.27088 -0.0556,0.456088 -0.11854,0.618146 -0.0639,0.169942 -0.16409,0.323929 -0.29358,0.451194 -0.12732,0.129646 -0.28128,0.229684 -0.45098,0.293581 -0.16206,0.06297 -0.34727,0.106019 -0.61812,0.118534 -0.271806,0.01249 -0.358378,0.01527 -1.050131,0.01527 -0.691753,0 -0.778338,-0.003 -1.049899,-0.01527 -0.270867,-0.01228 -0.456075,-0.05556 -0.618132,-0.118533 -0.169948,-0.06392 -0.323927,-0.164094 -0.451216,-0.293581 -0.129558,-0.127159 -0.229817,-0.281067 -0.293785,-0.450983 -0.06274,-0.162057 -0.105801,-0.347265 -0.118303,-0.618119 -0.0125,-0.272018 -0.01528,-0.358616 -0.01528,-1.050131 0,-0.691754 0.003,-0.778338 0.01528,-1.049669 0.01227,-0.27133 0.05556,-0.456538 0.118303,-0.618596 0.06406,-0.16991 0.164399,-0.32381 0.294016,-0.450982 0.127111,-0.129529 0.280932,-0.229788 0.450752,-0.293785 0.162057,-0.06274 0.347265,-0.105802 0.618133,-0.118303 z m 2.07897,0.45839 c -0.268553,-0.01227 -0.349118,-0.01482 -1.029071,-0.01482 -0.679948,0 -0.760513,0.0025 -1.029065,0.01482 -0.24841,0.01135 -0.383149,0.05279 -0.472975,0.08774 -0.118763,0.0463 -0.203729,0.101172 -0.292859,0.190305 -0.08449,0.0822 -0.149516,0.182263 -0.190304,0.292859 -0.03496,0.08983 -0.0764,0.224565 -0.08774,0.472974 -0.01227,0.268553 -0.01482,0.349118 -0.01482,1.029066 0,0.679952 0.0025,0.760518 0.01482,1.02907 0.01134,0.248391 0.05278,0.383143 0.08774,0.472969 0.04075,0.110437 0.105801,0.210688 0.190304,0.292867 0.08219,0.08451 0.18243,0.149543 0.292859,0.190289 0.08983,0.03498 0.224565,0.07641 0.472975,0.08776 0.268552,0.01225 0.348887,0.01479 1.029065,0.01479 0.680164,0 0.760518,-0.0025 1.029071,-0.01479 0.24839,-0.01135 0.38314,-0.05278 0.47297,-0.08776 0.11877,-0.0463 0.20373,-0.10115 0.29287,-0.190289 0.0845,-0.08218 0.14954,-0.18243 0.19028,-0.292867 0.035,-0.08983 0.0764,-0.224578 0.0878,-0.472969 0.0122,-0.268552 0.0148,-0.349118 0.0148,-1.02907 0,-0.679948 -0.003,-0.760513 -0.0148,-1.029066 -0.0114,-0.248409 -0.0528,-0.383148 -0.0878,-0.472974 -0.0463,-0.118764 -0.10115,-0.203729 -0.19028,-0.292859 -0.0822,-0.08449 -0.18228,-0.149508 -0.29287,-0.190305 -0.0898,-0.03496 -0.22458,-0.0764 -0.47297,-0.08774 z m -1.354342,2.85799 c 0.181655,0.07562 0.383929,0.08583 0.572286,0.02889 0.18833,-0.05697 0.351075,-0.177535 0.460401,-0.341127 0.1093,-0.163618 0.158435,-0.360098 0.138985,-0.55589 -0.01945,-0.195812 -0.106256,-0.37879 -0.245638,-0.517691 -0.08885,-0.08879 -0.196268,-0.156774 -0.314537,-0.199065 -0.118269,-0.04229 -0.244448,-0.05783 -0.369464,-0.0455 -0.124992,0.01233 -0.245703,0.05222 -0.353436,0.116801 -0.107733,0.06458 -0.199808,0.152244 -0.269594,0.25668 -0.06979,0.104436 -0.115549,0.223046 -0.133996,0.347287 -0.01844,0.124248 -0.0091,0.251036 0.02732,0.371237 0.03644,0.1202 0.09907,0.230849 0.183398,0.323929 0.08433,0.09311 0.188243,0.166344 0.304271,0.214445 z M 98.23495,83.320562 c 0.12155,-0.12155 0.265848,-0.217966 0.424659,-0.283747 0.158811,-0.06578 0.329023,-0.09964 0.50092,-0.09964 0.1719,0 0.342106,0.03386 0.500909,0.09964 0.158829,0.06578 0.303133,0.162198 0.424682,0.283748 0.12152,0.121549 0.21796,0.265848 0.28374,0.424658 0.0658,0.158811 0.0996,0.329023 0.0996,0.50092 0,0.1719 -0.0339,0.342106 -0.0996,0.500909 -0.0658,0.15883 -0.16222,0.303134 -0.28374,0.424683 -0.24548,0.245454 -0.578431,0.383382 -0.925591,0.383382 -0.34716,0 -0.680101,-0.137928 -0.925579,-0.383382 -0.245478,-0.24548 -0.383386,-0.578432 -0.383386,-0.925591 0,-0.34716 0.137908,-0.680101 0.383386,-0.92558 z m 2.52485,-0.18845 c 0.0301,-0.02841 0.0542,-0.06258 0.0709,-0.10048 0.0167,-0.0379 0.0256,-0.07876 0.0262,-0.120166 6.1e-4,-0.0414 -0.007,-0.0825 -0.0227,-0.120875 -0.0156,-0.03837 -0.0387,-0.07323 -0.068,-0.102508 -0.0293,-0.02928 -0.0641,-0.05239 -0.10252,-0.06795 -0.0384,-0.01557 -0.0795,-0.02327 -0.12086,-0.02267 -0.0414,6.04e-4 -0.0823,0.0095 -0.12018,0.02619 -0.0379,0.01668 -0.0721,0.04079 -0.10049,0.07091 -0.0552,0.05858 -0.0855,0.136388 -0.0843,0.216908 0.001,0.08052 0.0337,0.157417 0.0906,0.214361 0.0569,0.05694 0.13385,0.08945 0.21437,0.09063 0.0805,0.0012 0.15832,-0.02908 0.2169,-0.08434 z"
       fill="#010101"
       id="path940"
       style="stroke-width:0.264583" />
  </g>
</svg>
