<?xml version="1.0" encoding="UTF-8" standalone="no"?>
<!-- Created with Inkscape (http://www.inkscape.org/) -->

<svg
   width="7.6199999mm"
   height="7.6199999mm"
   viewBox="0 0 7.6199999 7.6199999"
   version="1.1"
   id="svg5"
   inkscape:version="1.1 (c68e22c387, 2021-05-23)"
   sodipodi:docname="instagram-br.svg"
   xmlns:inkscape="http://www.inkscape.org/namespaces/inkscape"
   xmlns:sodipodi="http://sodipodi.sourceforge.net/DTD/sodipodi-0.dtd"
   xmlns="http://www.w3.org/2000/svg"
   xmlns:svg="http://www.w3.org/2000/svg">
  <sodipodi:namedview
     id="namedview7"
     pagecolor="#ffffff"
     bordercolor="#666666"
     borderopacity="1.0"
     inkscape:pageshadow="2"
     inkscape:pageopacity="0.0"
     inkscape:pagecheckerboard="0"
     inkscape:document-units="mm"
     showgrid="false"
     inkscape:zoom="7.4261504"
     inkscape:cx="9.5608083"
     inkscape:cy="6.0596672"
     inkscape:window-width="1313"
     inkscape:window-height="699"
     inkscape:window-x="53"
     inkscape:window-y="32"
     inkscape:window-maximized="1"
     inkscape:current-layer="layer1" />
  <defs
     id="defs2" />
  <g
     inkscape:label="Layer 1"
     inkscape:groupmode="layer"
     id="layer1"
     transform="translate(-137.56428,-148.96543)">
    <path
       d="m 144.33762,148.96543 h -5.92668 c -0.46566,0 -0.84666,0.381 -0.84666,0.84667 v 5.92666 c 0,0.46609 0.381,0.84667 0.84666,0.84667 h 5.92668 c 0.46566,0 0.84666,-0.38058 0.84666,-0.84667 v -5.92666 c 0,-0.46567 -0.381,-0.84667 -0.84666,-0.84667 z m -2.97011,6.14807 c 0.62182,-1.1e-4 1.21811,-0.2472 1.65777,-0.68694 0.43966,-0.43973 0.68665,-1.03608 0.68665,-1.6579 0,-0.14309 -0.0182,-0.2811 -0.0436,-0.41656 h 0.66929 v 3.05477 c 0,0.0385 -0.008,0.0765 -0.0224,0.11208 -0.0148,0.0355 -0.0364,0.0678 -0.0637,0.0949 -0.0273,0.0271 -0.0596,0.0486 -0.0952,0.0632 -0.0356,0.0146 -0.0737,0.022 -0.11215,0.0219 h -5.33994 c -0.0385,1.6e-4 -0.0766,-0.007 -0.11217,-0.0219 -0.0356,-0.0146 -0.0679,-0.0361 -0.0952,-0.0632 -0.0272,-0.0272 -0.0489,-0.0594 -0.0636,-0.0949 -0.0148,-0.0355 -0.0224,-0.0736 -0.0224,-0.11208 v -3.05477 h 0.65574 c -0.0258,0.13546 -0.044,0.27347 -0.044,0.41656 1.1e-4,0.62185 0.24719,1.21822 0.68691,1.65793 0.43972,0.43971 1.03609,0.6868 1.65794,0.68691 z m -1.46516,-2.34484 c 0,-0.19241 0.0379,-0.38293 0.11152,-0.56068 0.0736,-0.17777 0.18156,-0.3393 0.31761,-0.47535 0.13605,-0.13605 0.29758,-0.24397 0.47532,-0.31761 0.17778,-0.0736 0.3683,-0.11152 0.56071,-0.11152 0.1924,0 0.38293,0.0379 0.56068,0.11152 0.17777,0.0736 0.33927,0.18156 0.47532,0.31761 0.13608,0.13605 0.244,0.29758 0.31761,0.47535 0.0736,0.17775 0.11155,0.36827 0.11155,0.56068 0,0.38859 -0.15436,0.76126 -0.42916,1.03603 -0.27477,0.27477 -0.64743,0.42912 -1.036,0.42912 -0.38859,0 -0.76126,-0.15435 -1.03603,-0.42912 -0.27477,-0.27477 -0.42913,-0.64744 -0.42913,-1.03603 z m 4.1419,-1.68656 h -0.68369 c -0.0776,-2.3e-4 -0.152,-0.0312 -0.2069,-0.0861 -0.0549,-0.0549 -0.0858,-0.12927 -0.086,-0.2069 v -0.68453 c 0,-0.16171 0.13123,-0.29252 0.29252,-0.29252 h 0.68368 c 0.16256,0 0.2938,0.13081 0.2938,0.29252 v 0.68411 c 0,0.16129 -0.13124,0.29337 -0.29337,0.29337 z"
       fill="#010101"
       id="path824"
       style="stroke-width:0.264583;fill:#ffffff;fill-opacity:1" />
  </g>
</svg>
