<?xml version="1.0" encoding="UTF-8" standalone="no"?>
<!-- Created with Inkscape (http://www.inkscape.org/) -->

<svg
   width="3.20593mm"
   height="4.1660428mm"
   viewBox="0 0 3.20593 4.1660428"
   version="1.1"
   id="svg5"
   sodipodi:docname="pinterest.svg"
   inkscape:version="1.1 (c68e22c387, 2021-05-23)"
   xmlns:inkscape="http://www.inkscape.org/namespaces/inkscape"
   xmlns:sodipodi="http://sodipodi.sourceforge.net/DTD/sodipodi-0.dtd"
   xmlns="http://www.w3.org/2000/svg"
   xmlns:svg="http://www.w3.org/2000/svg">
  <sodipodi:namedview
     id="namedview7"
     pagecolor="#ffffff"
     bordercolor="#666666"
     borderopacity="1.0"
     inkscape:pageshadow="2"
     inkscape:pageopacity="0.0"
     inkscape:pagecheckerboard="0"
     inkscape:document-units="mm"
     showgrid="false"
     inkscape:zoom="0.65638516"
     inkscape:cx="-108.1682"
     inkscape:cy="166.06104"
     inkscape:window-width="1313"
     inkscape:window-height="699"
     inkscape:window-x="53"
     inkscape:window-y="32"
     inkscape:window-maximized="1"
     inkscape:current-layer="layer1"
     inkscape:lockguides="true" />
  <defs
     id="defs2" />
  <g
     inkscape:label="Layer 1"
     inkscape:groupmode="layer"
     id="layer1"
     transform="translate(-112.06885,-64.427087)">
    <path
       d="m 112.06885,65.921493 c 0,-0.180115 0.0315,-0.350277 0.0935,-0.509093 0.0593,-0.154255 0.14735,-0.29583 0.25952,-0.417182 0.11195,-0.119758 0.24005,-0.223313 0.38061,-0.307676 0.14421,-0.08724 0.30034,-0.153064 0.46348,-0.195394 0.16512,-0.04336 0.33515,-0.06522 0.50586,-0.06506 0.26368,0 0.50908,0.0558 0.73665,0.16692 0.22461,0.109098 0.41579,0.276527 0.55356,0.484783 0.14214,0.211831 0.21275,0.451445 0.21275,0.718608 0,0.160206 -0.0157,0.316937 -0.0479,0.470197 -0.0316,0.15317 -0.0818,0.301918 -0.14957,0.442888 -0.0646,0.136446 -0.14899,0.262599 -0.25048,0.374333 -0.10205,0.109961 -0.22561,0.197749 -0.36301,0.257916 -0.1492,0.06538 -0.31057,0.09829 -0.47345,0.09655 -0.11321,0 -0.22619,-0.02664 -0.33776,-0.08012 -0.1116,-0.05323 -0.19171,-0.126391 -0.23986,-0.22016 -0.0169,0.06506 -0.04,0.159041 -0.0708,0.281967 -0.0296,0.122714 -0.0496,0.201877 -0.0583,0.237781 -0.009,0.03564 -0.0264,0.09514 -0.0514,0.177562 -0.017,0.06096 -0.0387,0.120491 -0.065,0.178038 l -0.0796,0.156025 c -0.0344,0.06697 -0.073,0.131762 -0.11529,0.194019 -0.0419,0.06064 -0.0938,0.133112 -0.15558,0.216455 l -0.0345,0.01228 -0.0229,-0.025 c -0.0248,-0.262308 -0.0375,-0.419285 -0.0375,-0.471144 0,-0.153484 0.0183,-0.325728 0.0544,-0.516943 0.0354,-0.191002 0.0914,-0.431085 0.16668,-0.719772 0.0752,-0.288475 0.11831,-0.458153 0.12988,-0.5084 -0.053,-0.108114 -0.0799,-0.249335 -0.0799,-0.422968 0,-0.138676 0.0433,-0.268552 0.13011,-0.390789 0.0871,-0.121775 0.19702,-0.182663 0.33037,-0.182663 0.1021,0 0.18127,0.0338 0.23799,0.101634 0.0569,0.0676 0.0847,0.152797 0.0847,0.256744 0,0.110199 -0.0366,0.269711 -0.1102,0.4783 -0.0736,0.208825 -0.11019,0.364638 -0.11019,0.468117 0,0.104881 0.0375,0.192617 0.11252,0.261382 0.074,0.06879 0.1719,0.106071 0.27295,0.103928 0.0917,0 0.17663,-0.02082 0.25558,-0.06273 0.0777,-0.04067 0.14497,-0.09874 0.19656,-0.169703 0.11232,-0.154094 0.19241,-0.329301 0.23546,-0.515099 0.0222,-0.0977 0.0393,-0.190535 0.05,-0.277813 0.0113,-0.08774 0.0162,-0.170624 0.0162,-0.249338 0,-0.288692 -0.0917,-0.51372 -0.27387,-0.674851 -0.18311,-0.161131 -0.42158,-0.241234 -0.7149,-0.241234 -0.33361,0 -0.61258,0.107884 -0.83599,0.324345 -0.22364,0.215768 -0.33615,0.490109 -0.33615,0.822788 0,0.07339 0.0111,0.144232 0.0322,0.212759 0.0206,0.06829 0.0431,0.122701 0.0674,0.162984 0.0241,0.03959 0.0468,0.07824 0.0674,0.113911 0.0208,0.03564 0.0317,0.06112 0.0317,0.07639 0,0.04678 -0.0123,0.107659 -0.037,0.182906 -0.0257,0.07522 -0.056,0.112739 -0.0926,0.112739 -0.003,0 -0.0178,-0.0025 -0.0428,-0.0079 -0.0866,-0.02585 -0.1648,-0.07417 -0.22665,-0.140048 -0.0657,-0.06829 -0.11746,-0.148643 -0.15257,-0.236617 -0.035,-0.08766 -0.0623,-0.178213 -0.0815,-0.270632 -0.0208,-0.08745 -0.031,-0.177056 -0.0306,-0.26693 z"
       fill="#010101"
       id="path910"
       style="stroke-width:0.264583" />
  </g>
</svg>
