<svg width="51" height="50" viewBox="0 0 51 50" fill="none" xmlns="http://www.w3.org/2000/svg">
<path d="M27.7533 25L40.5707 9.72168C40.7855 9.46777 40.6049 9.08203 40.2729 9.08203H36.3764C36.1469 9.08203 35.9271 9.18457 35.7758 9.36035L25.2045 21.9629L14.6332 9.36035C14.4867 9.18457 14.267 9.08203 14.0326 9.08203H10.1361C9.8041 9.08203 9.62344 9.46777 9.83828 9.72168L22.6557 25L9.83828 40.2783C9.79015 40.3349 9.75928 40.4041 9.74932 40.4778C9.73936 40.5514 9.75074 40.6263 9.7821 40.6937C9.81346 40.761 9.86349 40.8179 9.92624 40.8577C9.989 40.8975 10.0618 40.9184 10.1361 40.918H14.0326C14.2621 40.918 14.4818 40.8154 14.6332 40.6397L25.2045 28.0371L35.7758 40.6397C35.9223 40.8154 36.142 40.918 36.3764 40.918H40.2729C40.6049 40.918 40.7855 40.5322 40.5707 40.2783L27.7533 25Z" fill="white"/>
</svg>
