<svg width="64" height="78" viewBox="0 0 64 78" fill="none" xmlns="http://www.w3.org/2000/svg">
<path d="M4.23111 11.6711C1.67111 12.8089 0 15.3689 0 18.1778V34.8889C0 54.6222 13.6533 73.0756 32 77.5556C50.3467 73.0756 64 54.6222 64 34.8889V18.1778C64 15.3689 62.3289 12.8089 59.7689 11.6711L34.88 0.613333C33.0311 -0.204444 30.9333 -0.204444 29.12 0.613333L4.23111 11.6711ZM32 20.6667C33.9556 20.6667 35.5556 22.2667 35.5556 24.2222C35.5556 26.1778 33.9556 27.7778 32 27.7778C30.0444 27.7778 28.4444 26.1778 28.4444 24.2222C28.4444 22.2667 30.0444 20.6667 32 20.6667ZM32 34.8889C33.9556 34.8889 35.5556 36.4889 35.5556 38.4444V52.6667C35.5556 54.6222 33.9556 56.2222 32 56.2222C30.0444 56.2222 28.4444 54.6222 28.4444 52.6667V38.4444C28.4444 36.4889 30.0444 34.8889 32 34.8889Z" fill="white"/>
</svg>
