<svg width="51" height="50" viewBox="0 0 51 50" fill="none" xmlns="http://www.w3.org/2000/svg">
<path d="M25.1104 15.625C26.8362 15.625 28.2354 14.2259 28.2354 12.5C28.2354 10.7741 26.8362 9.375 25.1104 9.375C23.3845 9.375 21.9854 10.7741 21.9854 12.5C21.9854 14.2259 23.3845 15.625 25.1104 15.625Z" fill="white"/>
<path d="M25.1104 28.1252C26.8362 28.1252 28.2354 26.7261 28.2354 25.0002C28.2354 23.2744 26.8362 21.8752 25.1104 21.8752C23.3845 21.8752 21.9854 23.2744 21.9854 25.0002C21.9854 26.7261 23.3845 28.1252 25.1104 28.1252Z" fill="white"/>
<path d="M25.1104 40.625C26.8362 40.625 28.2354 39.2259 28.2354 37.5C28.2354 35.7741 26.8362 34.375 25.1104 34.375C23.3845 34.375 21.9854 35.7741 21.9854 37.5C21.9854 39.2259 23.3845 40.625 25.1104 40.625Z" fill="white"/>
</svg>
