<svg width="24" height="24" viewBox="0 0 96 96" fill="none" xmlns="http://www.w3.org/2000/svg">
<path d="M48 30C51.3137 30 54 27.3137 54 24C54 20.6863 51.3137 18 48 18C44.6863 18 42 20.6863 42 24C42 27.3137 44.6863 30 48 30Z" fill="white"/>
<path d="M48 54C51.3137 54 54 51.3137 54 48C54 44.6863 51.3137 42 48 42C44.6863 42 42 44.6863 42 48C42 51.3137 44.6863 54 48 54Z" fill="white"/>
<path d="M48 78C51.3137 78 54 75.3137 54 72C54 68.6863 51.3137 66 48 66C44.6863 66 42 68.6863 42 72C42 75.3137 44.6863 78 48 78Z" fill="white"/>
</svg>