<svg width="47" height="45" viewBox="0 0 47 45" fill="none" xmlns="http://www.w3.org/2000/svg">
<g filter="url(#filter0_i_480_53)">
<path d="M38.5957 44.8347C40.5967 44.8347 42.3737 44.0582 43.9267 42.5052C45.5693 40.8626 46.3906 38.8691 46.3906 36.5246C46.3906 34.1802 45.5693 32.1867 43.9267 30.5441L18.1677 3.21712C16.8537 1.87318 15.338 1.00708 13.6207 0.618826C11.9035 0.230574 10.1638 0.335103 8.40173 0.932413C6.63967 1.52972 5.012 2.56008 3.51873 4.02349C3.04088 4.53121 2.60036 5.09118 2.19718 5.70343C1.79399 6.31567 1.46548 6.95778 1.21162 7.62975C0.957764 8.30173 0.763638 9.01103 0.629242 9.75767C0.494846 10.5043 0.42765 11.2509 0.42765 11.9976C0.487381 15.1633 1.56254 17.8064 3.65312 19.9269L23.1403 40.6237C23.4091 40.9223 23.7377 41.0791 24.1259 41.094C24.5142 41.109 24.8501 40.9821 25.1339 40.7133C25.4176 40.4445 25.5669 40.1085 25.5819 39.7053C25.5968 39.3021 25.4699 38.9512 25.2011 38.6525L5.71384 17.9557C4.13097 16.343 3.3246 14.342 3.29473 11.9528C3.26487 9.56354 4.02644 7.60735 5.57944 6.08421C6.53514 5.09865 7.59536 4.35201 8.76012 3.8443C9.92487 3.33659 11.1792 3.17233 12.5232 3.35152C13.8671 3.53071 15.0617 4.14295 16.107 5.18825L41.866 32.5152C42.971 33.6202 43.5235 34.9492 43.5235 36.5022C43.5235 38.0552 42.971 39.3842 41.866 40.4893C41.3583 40.997 40.8058 41.3778 40.2085 41.6316C39.6112 41.8855 38.984 41.9825 38.3269 41.9228C37.0129 41.8631 35.7884 41.2508 34.6535 40.0861L14.1807 18.3141C14.0314 18.1648 13.8895 18.008 13.7551 17.8438C13.6207 17.6795 13.4789 17.4854 13.3295 17.2614C13.1802 17.0374 13.0607 16.7985 12.9712 16.5446C12.8816 16.2907 12.8218 16.0369 12.792 15.783C12.7621 15.5292 12.8069 15.2679 12.9264 14.9991C13.0458 14.7303 13.225 14.4764 13.4639 14.2375C14.0314 13.6402 14.5839 13.3714 15.1215 13.4311C15.6889 13.4909 16.331 13.8642 17.0478 14.5511L32.4584 30.9472C32.6376 31.1264 32.8466 31.2534 33.0856 31.328C33.3245 31.4027 33.5709 31.4102 33.8247 31.3504C34.0786 31.2907 34.2951 31.1712 34.4743 30.992C34.773 30.7233 34.9223 30.3947 34.9223 30.0065C34.9223 29.6182 34.7879 29.2748 34.5191 28.9761L19.1085 12.5352C17.884 11.3405 16.6446 10.6835 15.3903 10.564C13.9567 10.4446 12.6426 10.9822 11.448 12.1768C10.3131 13.2818 9.81288 14.5809 9.94727 16.0742C10.0817 17.5675 10.8059 18.9712 12.12 20.2853L32.5928 42.102C34.2652 43.7745 36.1318 44.6704 38.1926 44.7899C38.2523 44.7899 38.3195 44.7974 38.3941 44.8123C38.4688 44.8272 38.536 44.8347 38.5957 44.8347Z" fill="#606060"/>
</g>
<defs>
<filter id="filter0_i_480_53" x="-3.57227" y="0.389404" width="49.9629" height="48.4453" filterUnits="userSpaceOnUse" color-interpolation-filters="sRGB">
<feFlood flood-opacity="0" result="BackgroundImageFix"/>
<feBlend mode="normal" in="SourceGraphic" in2="BackgroundImageFix" result="shape"/>
<feColorMatrix in="SourceAlpha" type="matrix" values="0 0 0 0 0 0 0 0 0 0 0 0 0 0 0 0 0 0 127 0" result="hardAlpha"/>
<feOffset dx="-5" dy="4"/>
<feGaussianBlur stdDeviation="2"/>
<feComposite in2="hardAlpha" operator="arithmetic" k2="-1" k3="1"/>
<feColorMatrix type="matrix" values="0 0 0 0 0 0 0 0 0 0 0 0 0 0 0 0 0 0 0.25 0"/>
<feBlend mode="normal" in2="shape" result="effect1_innerShadow_480_53"/>
</filter>
</defs>
</svg>
