<svg width="82" height="46" viewBox="0 0 82 46" fill="none" xmlns="http://www.w3.org/2000/svg">
<path d="M11.0043 33.8324L14.3993 30.4374L6.20458 22.5939L14.3993 14.5163L11.0043 11.5896L0 22.5939L11.0043 33.8324Z" fill="#00B682"/>
<path d="M74.572 22.5939L66.8455 30.4374L69.6551 33.8324L81.0107 22.5939L69.6551 11.5896L66.8455 14.5163L74.572 22.5939Z" fill="#00B682"/>
<path d="M21.7745 2.34135C21.7745 0.468271 22.633 0 23.0622 0L57.363 0C58.2995 0 58.6735 0.702405 58.7434 1.05361V27.2773L41.3248 45.188C40.7628 45.6563 39.8419 45.3832 39.4517 45.188L21.7745 33.7154L21.7745 2.34135Z" fill="#007463"/>
<path d="M29.4974 20.7494L29.3397 21.0518L29.5637 21.309C29.7069 21.4735 29.8933 21.5015 29.9923 21.5037C30.0946 21.506 30.1873 21.4847 30.2539 21.4652C30.3908 21.4251 30.5437 21.3541 30.6966 21.2733C31.0096 21.108 31.4216 20.8482 31.8997 20.5244C32.8605 19.8737 34.1408 18.9284 35.5364 17.8628C38.33 15.7299 41.6124 13.0948 43.7826 11.3188L43.8476 11.2656L43.8917 11.1939C45.0199 9.36063 44.8671 7.70988 44.5836 7.02492L44.5796 7.01514L44.5751 7.00554C43.4959 4.68103 42.5374 3.30512 41.7554 2.50271C40.9846 1.71169 40.3356 1.42985 39.8803 1.42985H39.5772L39.437 1.69856L29.4974 20.7494ZM25.2091 33.2996L25.3049 33.3415H25.4095C25.4677 33.3415 25.5362 33.3305 25.5689 33.3253L25.5723 33.3247C25.6217 33.3168 25.685 33.3057 25.7597 33.2918C25.9098 33.264 26.1168 33.2235 26.3733 33.1718C26.8869 33.0684 27.6071 32.9188 28.4845 32.7341C30.2397 32.3644 32.629 31.8528 35.2653 31.2845C40.538 30.1478 46.801 28.7838 50.9599 27.8745L51.0082 27.864L51.0535 27.8442C51.3597 27.7102 51.7001 27.4889 51.7531 27.1032C51.809 26.6976 51.5114 26.4556 51.3787 26.376L51.2946 26.3256L51.1978 26.3106C47.0684 25.6726 43.8451 25.1541 41.2833 24.742C38.9159 24.3611 37.1134 24.0712 35.6828 23.8618C32.6933 23.4243 31.2582 23.3274 29.6085 23.49L29.58 23.4928L29.5521 23.4989C28.9479 23.6292 28.3796 24.0641 27.8786 24.5824C27.3657 25.1128 26.8659 25.7917 26.406 26.5093C25.4912 27.9367 24.6979 29.5754 24.2415 30.6602C23.8877 31.3387 23.9501 31.9537 24.2248 32.4312C24.4827 32.8795 24.9013 33.1649 25.2091 33.2996ZM41.8862 21.6945L41.9195 21.7135L41.9554 21.7272L55.1021 26.7354L55.1803 26.7652L55.2639 26.7679C55.6201 26.7794 55.9389 26.7038 56.194 26.5193C56.4506 26.3337 56.5887 26.0768 56.6545 25.828C56.7785 25.3585 56.6678 24.8449 56.5552 24.5333L56.5372 24.4832L56.509 24.4381C56.143 23.8526 50.0196 14.9884 47.0163 10.6474L46.6488 10.1163L46.2266 10.6051L40.8607 16.8192L40.8377 16.8458L40.8187 16.8753C40.0561 18.0594 40.0388 19.1354 40.389 19.998C40.7262 20.8287 41.3807 21.4069 41.8862 21.6945ZM29.964 20.5078C29.964 20.5077 29.9649 20.5075 29.9666 20.5072L29.964 20.5078Z" fill="white" stroke="#00604D"/>
</svg>
