<svg width="78" height="75" viewBox="0 0 78 75" fill="none" xmlns="http://www.w3.org/2000/svg">
<g filter="url(#filter0_i_480_55)">
<path d="M3.75592 1.29315L50.4972 26.6547C50.2947 28.2068 22.562 26.0259 8.72094 24.7414C4.20792 22.6928 2.53081 19.4061 2.25638 18.0189C0.350793 5.6435 2.67782 2.01503 3.75592 1.29315Z" fill="#606060"/>
<path d="M74.9461 39.7074C77.6049 41.1189 76.8714 43.6492 76.1723 44.738C75.3588 45.2827 35.7673 60.9758 16.0732 68.7544C14.5457 69.0324 14.5341 68.322 14.7193 67.932C44.2463 40.8469 48.2234 36.1891 55.217 32.4372C59.5296 30.7199 70.1666 36.5685 74.9461 39.7074Z" fill="#606060"/>
<path d="M21.8683 34.4194C27.5804 36.8718 26.7867 41.8983 25.6759 44.105L5.38464 72.5865C3.14132 74.1949 1.90605 71.8569 1.56883 70.4868C1.52138 68.8163 1.99085 42.1906 2.23151 29.0866L21.8683 34.4194Z" fill="#606060"/>
</g>
<path d="M3.47774 0.877687L3.7288 0.709578L3.99438 0.853677L50.7356 26.2152L51.0374 26.379L50.993 26.7194C50.961 26.9642 50.8018 27.1173 50.6863 27.1985C50.5679 27.2817 50.4288 27.3382 50.2978 27.3797C50.0319 27.464 49.6774 27.5237 49.265 27.5679C48.4324 27.6573 47.2563 27.6943 45.8295 27.6911C42.9703 27.6848 39.0407 27.5169 34.6941 27.2609C25.9978 26.7487 15.5983 25.8818 8.67474 25.2393L8.59092 25.2315L8.51427 25.1967C3.86331 23.0854 2.07346 19.6707 1.76588 18.1159L1.76382 18.1055L1.7622 18.095C0.804438 11.875 0.903447 7.81288 1.39587 5.19357C1.88542 2.58957 2.77809 1.34616 3.47774 0.877687ZM76.593 45.0081L76.5368 45.0956L76.4504 45.1534C76.3854 45.197 76.282 45.2459 76.1939 45.2866C76.089 45.335 75.9493 45.3969 75.778 45.4709C75.435 45.6192 74.9556 45.8207 74.3554 46.0692C73.1544 46.5665 71.4626 47.2553 69.3953 48.0901C65.2604 49.7599 59.6188 52.0161 53.388 54.498C40.9261 59.4619 26.1042 65.33 16.2569 69.2194L16.2112 69.2375L16.1628 69.2463C15.379 69.3889 14.742 69.332 14.3807 68.9263C14.0052 68.5048 14.1466 67.9725 14.2676 67.7176L14.3095 67.6295L14.3813 67.5636C22.0514 60.5278 28.0015 55.0015 32.7281 50.6117C37.0929 46.5578 40.4142 43.473 43.0831 41.0635C48.6501 36.0375 51.429 33.9019 54.9806 31.9966L55.0056 31.9832L55.032 31.9727C56.2502 31.4876 57.8438 31.5563 59.5506 31.9181C61.2739 32.2835 63.1909 32.9654 65.1047 33.7922C68.9237 35.4421 72.7933 37.6969 75.2015 39.277C76.667 40.0628 77.2447 41.1966 77.3173 42.3112C77.3877 43.3909 76.9831 44.4006 76.593 45.0081ZM21.9993 33.9369L22.0332 33.9461L22.0655 33.9599C25.063 35.2468 26.409 37.2452 26.8205 39.254C27.225 41.2283 26.7155 43.1517 26.1225 44.3298L26.1053 44.3639L26.0831 44.3951L5.79186 72.8766L5.74359 72.9443L5.67599 72.9928C5.05154 73.4405 4.44769 73.6483 3.87294 73.6294C3.29579 73.6103 2.81387 73.3648 2.43194 73.0292C1.69037 72.3777 1.263 71.3363 1.08333 70.6063L1.07055 70.5544L1.06904 70.501C1.02114 68.815 1.49118 42.1681 1.7316 29.0774L1.74338 28.4359L2.36255 28.6041L21.9993 33.9369Z" stroke="#EFCD91"/>
<defs>
<filter id="filter0_i_480_55" x="-3.46973" y="0.125977" width="81.2949" height="78.0046" filterUnits="userSpaceOnUse" color-interpolation-filters="sRGB">
<feFlood flood-opacity="0" result="BackgroundImageFix"/>
<feBlend mode="normal" in="SourceGraphic" in2="BackgroundImageFix" result="shape"/>
<feColorMatrix in="SourceAlpha" type="matrix" values="0 0 0 0 0 0 0 0 0 0 0 0 0 0 0 0 0 0 127 0" result="hardAlpha"/>
<feOffset dx="-5" dy="4"/>
<feGaussianBlur stdDeviation="2"/>
<feComposite in2="hardAlpha" operator="arithmetic" k2="-1" k3="1"/>
<feColorMatrix type="matrix" values="0 0 0 0 0 0 0 0 0 0 0 0 0 0 0 0 0 0 0.25 0"/>
<feBlend mode="normal" in2="shape" result="effect1_innerShadow_480_55"/>
</filter>
</defs>
</svg>
