<svg width="45" height="45" viewBox="0 0 45 45" fill="none" xmlns="http://www.w3.org/2000/svg">
<g filter="url(#filter0_i_480_51)">
<path d="M22.5 0C10.0575 0 0 10.125 0 22.5C0 28.4674 2.37053 34.1903 6.5901 38.4099C8.67942 40.4992 11.1598 42.1566 13.8896 43.2873C16.6194 44.418 19.5453 45 22.5 45C28.4674 45 34.1903 42.6295 38.4099 38.4099C42.6295 34.1903 45 28.4674 45 22.5C45 19.5453 44.418 16.6194 43.2873 13.8896C42.1566 11.1598 40.4992 8.67942 38.4099 6.5901C36.3206 4.50078 33.8402 2.84344 31.1104 1.71271C28.3806 0.58198 25.4547 0 22.5 0ZM30.375 13.5C31.2701 13.5 32.1285 13.8556 32.7615 14.4885C33.3944 15.1214 33.75 15.9799 33.75 16.875C33.75 17.7701 33.3944 18.6286 32.7615 19.2615C32.1285 19.8944 31.2701 20.25 30.375 20.25C29.4799 20.25 28.6214 19.8944 27.9885 19.2615C27.3556 18.6286 27 17.7701 27 16.875C27 15.9799 27.3556 15.1214 27.9885 14.4885C28.6214 13.8556 29.4799 13.5 30.375 13.5ZM14.625 13.5C15.5201 13.5 16.3786 13.8556 17.0115 14.4885C17.6444 15.1214 18 15.9799 18 16.875C18 17.7701 17.6444 18.6286 17.0115 19.2615C16.3786 19.8944 15.5201 20.25 14.625 20.25C13.7299 20.25 12.8714 19.8944 12.2385 19.2615C11.6056 18.6286 11.25 17.7701 11.25 16.875C11.25 15.9799 11.6056 15.1214 12.2385 14.4885C12.8714 13.8556 13.7299 13.5 14.625 13.5ZM22.5 34.875C17.2575 34.875 12.8025 31.59 11.0025 27H33.9975C32.175 31.59 27.7425 34.875 22.5 34.875Z" fill="#606060"/>
</g>
<defs>
<filter id="filter0_i_480_51" x="-3" y="0" width="48" height="49" filterUnits="userSpaceOnUse" color-interpolation-filters="sRGB">
<feFlood flood-opacity="0" result="BackgroundImageFix"/>
<feBlend mode="normal" in="SourceGraphic" in2="BackgroundImageFix" result="shape"/>
<feColorMatrix in="SourceAlpha" type="matrix" values="0 0 0 0 0 0 0 0 0 0 0 0 0 0 0 0 0 0 127 0" result="hardAlpha"/>
<feOffset dx="-3" dy="4"/>
<feGaussianBlur stdDeviation="2"/>
<feComposite in2="hardAlpha" operator="arithmetic" k2="-1" k3="1"/>
<feColorMatrix type="matrix" values="0 0 0 0 0 0 0 0 0 0 0 0 0 0 0 0 0 0 0.25 0"/>
<feBlend mode="normal" in2="shape" result="effect1_innerShadow_480_51"/>
</filter>
</defs>
</svg>
