<svg width="224" height="108" viewBox="0 0 224 108" fill="none" xmlns="http://www.w3.org/2000/svg">
<g filter="url(#filter0_d_114_172)">
<path d="M209 60.2245C209 29.7249 184.275 5 153.775 5H53.1676C39.3605 5 28.1676 16.1929 28.1676 30V39.2548C28.1676 39.2548 27.8804 49.7223 27.2333 56.7943C26.8221 61.2879 26.8432 62.8286 24.8929 69.3657C22.9426 75.9029 5 93 5 93C5 93 27.9746 75.5936 31.4484 74.6819C34.9223 73.7701 39.4696 74.0306 39.4696 74.0306H50.7717H73.3757H118.584H195.194C202.819 74.0306 209 67.8494 209 60.2245Z" fill="#FFD996"/>
</g>
<defs>
<filter id="filter0_d_114_172" x="0" y="0" width="224" height="108" filterUnits="userSpaceOnUse" color-interpolation-filters="sRGB">
<feFlood flood-opacity="0" result="BackgroundImageFix"/>
<feColorMatrix in="SourceAlpha" type="matrix" values="0 0 0 0 0 0 0 0 0 0 0 0 0 0 0 0 0 0 127 0" result="hardAlpha"/>
<feOffset dx="5" dy="5"/>
<feGaussianBlur stdDeviation="5"/>
<feComposite in2="hardAlpha" operator="out"/>
<feColorMatrix type="matrix" values="0 0 0 0 0 0 0 0 0 0 0 0 0 0 0 0 0 0 0.45 0"/>
<feBlend mode="normal" in2="BackgroundImageFix" result="effect1_dropShadow_114_172"/>
<feBlend mode="normal" in="SourceGraphic" in2="effect1_dropShadow_114_172" result="shape"/>
</filter>
</defs>
</svg>
