<svg width="64" height="64" viewBox="0 0 64 64" fill="none" xmlns="http://www.w3.org/2000/svg">
<path d="M64 32C64 40.4869 60.6286 48.6263 54.6274 54.6274C48.6263 60.6286 40.4869 64 32 64C23.5131 64 15.3737 60.6286 9.37258 54.6274C3.37142 48.6263 0 40.4869 0 32C0 23.5131 3.37142 15.3737 9.37258 9.37258C15.3737 3.37142 23.5131 0 32 0C40.4869 0 48.6263 3.37142 54.6274 9.37258C60.6286 15.3737 64 23.5131 64 32ZM56 32C56.0072 27.016 54.4557 22.1544 51.5627 18.096L18.096 51.5627C21.6864 54.1146 25.91 55.6292 30.3039 55.9405C34.6979 56.2518 39.0928 55.3478 43.0071 53.3275C46.9215 51.3073 50.2044 48.2487 52.4961 44.4869C54.7879 40.725 56.0001 36.405 56 32ZM45.904 12.4373C41.2812 9.15102 35.6439 7.60814 29.9918 8.08233C24.3398 8.55651 19.0384 11.0171 15.0277 15.0277C11.0171 19.0384 8.55651 24.3398 8.08233 29.9918C7.60814 35.6439 9.15102 41.2812 12.4373 45.904L45.904 12.4373Z" fill="white"/>
</svg>
