<svg width="64" height="64" viewBox="0 0 64 64" fill="none" xmlns="http://www.w3.org/2000/svg">
<path d="M32 0C14.3552 0 0 14.3552 0 32C0 49.6448 14.3552 64 32 64C49.6448 64 64 49.6448 64 32C64 14.3552 49.6448 0 32 0ZM35.2 51.2H28.8V44.8H35.2V51.2ZM38.3232 35.568C37.696 36.0736 37.0912 36.5568 36.6112 37.0368C35.3056 38.3392 35.2032 39.5232 35.2 39.5744V40H28.8V39.4656C28.8 39.088 28.8928 35.6992 32.0832 32.5088C32.7072 31.8848 33.4816 31.2512 34.2944 30.592C36.6432 28.688 38.1856 27.2992 38.1856 25.3856C38.1484 23.769 37.48 22.2312 36.3234 21.1012C35.1668 19.9712 33.6138 19.3387 31.9968 19.3391C30.3798 19.3395 28.8272 19.9728 27.6712 21.1034C26.5152 22.234 25.8475 23.7722 25.8112 25.3888H19.4112C19.4112 18.448 25.0592 12.8 32 12.8C38.9408 12.8 44.5888 18.448 44.5888 25.3888C44.5888 30.4992 40.816 33.5488 38.3232 35.568Z" fill="white"/>
</svg>
