<svg width="64" height="64" viewBox="0 0 64 64" fill="none" xmlns="http://www.w3.org/2000/svg">
<path d="M10.6663 10.6668H29.333V5.3335H10.6663C7.73301 5.3335 5.33301 7.7335 5.33301 10.6668V29.3335H10.6663V10.6668ZM26.6663 34.6668L15.9997 48.0002H47.9997L39.9997 37.3335L34.5863 44.5602L26.6663 34.6668ZM45.333 22.6668C45.333 20.4535 43.5463 18.6668 41.333 18.6668C39.1197 18.6668 37.333 20.4535 37.333 22.6668C37.333 24.8802 39.1197 26.6668 41.333 26.6668C43.5463 26.6668 45.333 24.8802 45.333 22.6668ZM53.333 5.3335H34.6663V10.6668H53.333V29.3335H58.6663V10.6668C58.6663 7.7335 56.2663 5.3335 53.333 5.3335ZM53.333 53.3335H34.6663V58.6668H53.333C56.2663 58.6668 58.6663 56.2668 58.6663 53.3335V34.6668H53.333V53.3335ZM10.6663 34.6668H5.33301V53.3335C5.33301 56.2668 7.73301 58.6668 10.6663 58.6668H29.333V53.3335H10.6663V34.6668Z" fill="white"/>
</svg>
