<svg width="64" height="64" viewBox="0 0 64 64" fill="none" xmlns="http://www.w3.org/2000/svg">
<path d="M32.0003 10.6667C34.8293 10.6667 37.5424 11.7906 39.5428 13.7909C41.5432 15.7913 42.667 18.5044 42.667 21.3334C42.667 24.1624 41.5432 26.8755 39.5428 28.8759C37.5424 30.8763 34.8293 32.0001 32.0003 32.0001C29.1713 32.0001 26.4582 30.8763 24.4579 28.8759C22.4575 26.8755 21.3337 24.1624 21.3337 21.3334C21.3337 18.5044 22.4575 15.7913 24.4579 13.7909C26.4582 11.7906 29.1713 10.6667 32.0003 10.6667ZM32.0003 37.3334C43.787 37.3334 53.3337 42.1067 53.3337 48.0001V53.3334H10.667V48.0001C10.667 42.1067 20.2137 37.3334 32.0003 37.3334Z" fill="white"/>
</svg>
