<svg width="64" height="64" viewBox="0 0 64 64" fill="none" xmlns="http://www.w3.org/2000/svg">
<path d="M21.3333 18.6667V26.6667L40 26.6667L40 37.3334L21.3333 37.3334L21.3333 45.3334L8 32.0001L21.3333 18.6667ZM26.6667 58.6667C25.2522 58.6667 23.8956 58.1048 22.8954 57.1047C21.8952 56.1045 21.3333 54.7479 21.3333 53.3334V48.0001H26.6667L26.6667 53.3334L50.6667 53.3334L50.6667 10.6667L26.6667 10.6667V16.0001H21.3333L21.3333 10.6667C21.3333 9.25226 21.8952 7.89571 22.8954 6.89551C23.8956 5.89532 25.2522 5.33341 26.6667 5.33341L50.6667 5.33341C52.0812 5.33341 53.4377 5.89532 54.4379 6.89551C55.4381 7.89571 56 9.25226 56 10.6667L56 53.3334C56 54.7479 55.4381 56.1045 54.4379 57.1047C53.4377 58.1048 52.0812 58.6667 50.6667 58.6667L26.6667 58.6667Z" fill="white"/>
</svg>
