<svg width="64" height="64" viewBox="0 0 64 64" fill="none" xmlns="http://www.w3.org/2000/svg">
<path d="M58.6667 24.0001V18.6667H53.3333V24.0001H48V29.3334H53.3333V34.6667H58.6667V29.3334H64V24.0001H58.6667ZM21.3333 32.0001C27.2267 32.0001 32 27.2267 32 21.3334C32 15.4401 27.2267 10.6667 21.3333 10.6667C15.44 10.6667 10.6667 15.4401 10.6667 21.3334C10.6667 27.2267 15.44 32.0001 21.3333 32.0001ZM21.3333 34.6667C14.2133 34.6667 0 38.2401 0 45.3334V53.3334H42.6667V45.3334C42.6667 38.2401 28.4533 34.6667 21.3333 34.6667ZM33.36 10.8001C35.8133 13.6267 37.3333 17.3067 37.3333 21.3334C37.3333 25.3601 35.8133 29.0401 33.36 31.8667C38.5867 31.2001 42.6667 26.7734 42.6667 21.3334C42.6667 15.8934 38.5867 11.4667 33.36 10.8001V10.8001ZM44.08 36.8801C46.4533 39.0934 48 41.8667 48 45.3334V53.3334H53.3333V45.3334C53.3333 41.4667 49.0933 38.6401 44.08 36.8801Z" fill="white"/>
</svg>
