<svg width="64" height="64" viewBox="0 0 64 64" fill="none" xmlns="http://www.w3.org/2000/svg">
<path d="M31.9996 41.3333C29.5242 41.3333 27.1502 40.3499 25.3999 38.5996C23.6496 36.8492 22.6662 34.4753 22.6662 31.9999C22.6662 29.5246 23.6496 27.1506 25.3999 25.4003C27.1502 23.6499 29.5242 22.6666 31.9996 22.6666C34.4749 22.6666 36.8489 23.6499 38.5992 25.4003C40.3496 27.1506 41.3329 29.5246 41.3329 31.9999C41.3329 34.4753 40.3496 36.8492 38.5992 38.5996C36.8489 40.3499 34.4749 41.3333 31.9996 41.3333ZM51.8129 34.5866C51.9196 33.7333 51.9996 32.8799 51.9996 31.9999C51.9996 31.1199 51.9196 30.2399 51.8129 29.3333L57.4396 24.9866C57.9462 24.5866 58.0796 23.8666 57.7596 23.2799L52.4262 14.0533C52.1062 13.4666 51.3862 13.2266 50.7996 13.4666L44.1596 16.1333C42.7729 15.0933 41.3329 14.1866 39.6529 13.5199L38.6662 6.45326C38.6121 6.13917 38.4485 5.8544 38.2044 5.64939C37.9604 5.44439 37.6516 5.3324 37.3329 5.33326H26.6662C25.9996 5.33326 25.4396 5.81326 25.3329 6.45326L24.3462 13.5199C22.6662 14.1866 21.2262 15.0933 19.8396 16.1333L13.1996 13.4666C12.6129 13.2266 11.8929 13.4666 11.5729 14.0533L6.23957 23.2799C5.89291 23.8666 6.05291 24.5866 6.55957 24.9866L12.1862 29.3333C12.0796 30.2399 11.9996 31.1199 11.9996 31.9999C11.9996 32.8799 12.0796 33.7333 12.1862 34.5866L6.55957 39.0133C6.05291 39.4133 5.89291 40.1333 6.23957 40.7199L11.5729 49.9466C11.8929 50.5333 12.6129 50.7466 13.1996 50.5333L19.8396 47.8399C21.2262 48.9066 22.6662 49.8133 24.3462 50.4799L25.3329 57.5466C25.4396 58.1866 25.9996 58.6666 26.6662 58.6666H37.3329C37.9996 58.6666 38.5596 58.1866 38.6662 57.5466L39.6529 50.4799C41.3329 49.7866 42.7729 48.9066 44.1596 47.8399L50.7996 50.5333C51.3862 50.7466 52.1062 50.5333 52.4262 49.9466L57.7596 40.7199C58.0796 40.1333 57.9462 39.4133 57.4396 39.0133L51.8129 34.5866Z" fill="white"/>
</svg>
