<svg version="1.2" baseProfile="tiny-ps" xmlns="http://www.w3.org/2000/svg" viewBox="0 0 1024 1024" width="100" height="100">
	<title>template</title>
	<style>
		tspan { white-space:pre }
		.shp0 { fill: #000000 } 
	</style>
	<path id="Strip" class="shp0" d="M0 0L1024 0L1024 1024L0 1024L0 0Z" />
	<path id="Arquivo exportado em SVG, para t" fill="#ffffff" aria-label="Arquivo exportado em SVG, para testar a funcionalidade."  d="M398.53 549L402.07 549L402.07 548.43L400.2 548.43L401.43 545.11L408.25 545.11L409.48 548.43L408.43 548.43L408.43 549L413.49 549L413.49 548.43L411.79 548.43L406.18 533.34L404.14 534.04L404.51 535.01L399.54 548.43L398.53 548.43ZM401.63 544.56L404.84 535.91L408.03 544.56ZM414.63 539.96L416.21 539.96L416.21 548.43L415.2 548.43L415.2 549L419.91 549L419.91 548.43L418.3 548.43L418.3 540.82C418.94 540.44 419.38 540.44 419.69 540.44C420.48 540.44 421.71 540.93 422.26 541.15L423.06 539.39L422.57 539.17C422.24 539.01 421.82 538.97 421.52 538.97C420.7 538.97 419.65 539.34 418.3 540.09L418.3 539.96L418.26 539.34L414.63 539.34ZM424.95 544.2C424.95 546.51 425.98 549.15 428.8 549.15C429.85 549.15 431.44 548.36 432.12 547.94L432.12 554.87L432.19 555.47L435.82 555.47L435.82 554.87L434.21 554.87L434.21 539.96L434.19 539.34L432.12 539.5C431.44 539.23 430.73 538.97 429.77 538.97C426.51 538.97 424.95 541.43 424.95 544.2ZM427.04 544.29C427.04 541.12 428.6 539.85 430.67 539.85C431.26 539.85 431.75 539.96 432.12 540.13L432.12 547.28C431.64 547.59 430.56 548.14 429.5 548.14C427.9 548.14 427.04 546.58 427.04 544.29ZM436.96 539.96L438.54 539.96L438.54 546.16C438.54 547.59 439.2 549.15 441.56 549.15C443.12 549.15 444.37 548.52 445.3 547.99L445.3 548.47L445.39 549L449.02 549L449.02 548.43L447.41 548.43L447.41 539.96L447.37 539.34L443.74 539.34L443.74 539.96L445.3 539.96L445.3 547.33C444.73 547.66 443.47 548.19 442.55 548.19C441.21 548.19 440.63 547.5 440.63 545.68L440.63 539.96L440.59 539.34L436.96 539.34ZM450.16 539.96L451.74 539.96L451.74 548.43L450.73 548.43L450.73 549L455.44 549L455.44 548.43L453.83 548.43L453.83 539.96L453.79 539.34L450.16 539.34ZM451.7 536.5C451.7 537.1 452.18 537.6 452.78 537.6C453.37 537.6 453.88 537.1 453.88 536.5C453.88 535.91 453.37 535.43 452.78 535.43C452.18 535.43 451.7 535.91 451.7 536.5ZM456.58 539.96L458.08 539.96L461.53 549.31L463.47 548.67L466.68 539.96L467.69 539.96L467.69 539.34L464.55 539.34L464.55 539.96L466.04 539.96L463.14 547.81L460.26 539.96L460.26 539.34L456.58 539.34ZM469.52 543.98C469.52 546.8 471.57 549.15 474.6 549.15C477.66 549.15 479.73 546.82 479.73 543.98C479.73 541.1 477.7 539.06 474.6 539.06C471.54 539.06 469.52 541.15 469.52 543.98ZM471.65 543.98C471.65 541.67 472.58 539.69 474.6 539.69C476.67 539.69 477.59 541.63 477.59 544.03C477.59 546.23 476.67 548.56 474.6 548.56C472.58 548.56 471.65 546.18 471.65 543.98ZM488.18 544.2C488.18 547.13 490.13 549.15 493.19 549.15C494.8 549.15 495.7 548.82 497.31 548.03L497.04 547.5C496.03 547.94 495.17 548.21 493.9 548.21C491.96 548.21 490.42 546.67 490.27 544.2L496.03 544.2L498.08 544.09C498.08 540.79 496.21 539.06 493.37 539.06C490.53 539.06 488.18 541.21 488.18 544.2ZM490.27 543.61C490.33 540.68 491.98 539.69 493.37 539.69C495.5 539.69 495.94 541.7 495.94 543.61ZM499.64 539.96L501.13 539.96L504.1 544.53L501.16 548.43L500.21 548.43L500.21 549L503.58 549L503.58 548.43L501.95 548.43L504.48 545.08L506.46 548.1C506.94 548.85 507.67 549 508.48 549L510.46 549L510.46 548.43C509.56 548.43 508.81 548.16 508.02 546.98L505.93 543.79L508.83 539.96L509.89 539.96L509.89 539.34L506.52 539.34L506.52 539.96L508.06 539.96L505.56 543.21L503.42 539.96L503.42 539.34L499.64 539.34ZM511.61 539.96L513.19 539.96L513.19 554.87L513.21 555.47L516.89 555.47L516.89 554.87L515.28 554.87L515.28 549C515.81 549.09 516.05 549.11 516.58 549.11C520.16 549.11 522.43 547.22 522.43 543.92C522.43 541.45 521.64 538.97 518.32 538.97C517.61 538.97 516.6 539.34 515.28 540.09L515.28 539.96L515.24 539.34L511.61 539.34ZM515.28 548.41L515.28 540.82C515.92 540.44 516.71 539.98 517.7 539.98C519.26 539.98 520.32 541.04 520.32 544.07C520.32 547.24 518.49 548.52 516.78 548.52C516.18 548.52 515.87 548.49 515.28 548.41ZM524.32 543.98C524.32 546.8 526.37 549.15 529.4 549.15C532.46 549.15 534.53 546.82 534.53 543.98C534.53 541.1 532.51 539.06 529.4 539.06C526.35 539.06 524.32 541.15 524.32 543.98ZM526.46 543.98C526.46 541.67 527.38 539.69 529.4 539.69C531.47 539.69 532.4 541.63 532.4 544.03C532.4 546.23 531.47 548.56 529.4 548.56C527.38 548.56 526.46 546.18 526.46 543.98ZM536.09 539.96L537.68 539.96L537.68 548.43L536.66 548.43L536.66 549L541.37 549L541.37 548.43L539.77 548.43L539.77 540.82C540.4 540.44 540.84 540.44 541.15 540.44C541.94 540.44 543.18 540.93 543.73 541.15L544.52 539.39L544.03 539.17C543.7 539.01 543.29 538.97 542.98 538.97C542.16 538.97 541.11 539.34 539.77 540.09L539.77 539.96L539.72 539.34L536.09 539.34ZM546.06 539.96L547.64 539.96L547.64 546.01C547.64 547.44 548.39 549 550.9 549L551.82 549L551.82 548.43C550.37 548.43 549.73 547.72 549.73 545.9L549.73 539.96L552.72 539.96L552.72 539.34L549.73 539.34L549.73 536.66L549.69 536.06L547.64 536.17L547.64 539.34L546.06 539.34ZM554.55 546.87C554.55 548.14 555.63 549.15 557.43 549.15C558.99 549.15 560.25 548.52 561.17 547.99L561.17 548.47L561.19 549L564.87 549L564.87 548.43L563.26 548.43L563.26 542.95C563.26 540.33 561.92 538.97 559.37 538.97C558.36 538.97 557.04 539.58 555.72 540.33L556 540.84C556.82 540.42 557.74 539.98 558.66 539.98C560.23 539.98 561.17 540.97 561.17 543.06L561.17 543.61C557.43 543.61 554.55 544.58 554.55 546.87ZM556.64 546.65C556.64 544.71 559.04 544.2 561.17 544.2L561.17 547.33C560.64 547.64 559.46 548.19 558.4 548.19C556.97 548.19 556.64 547.28 556.64 546.65ZM566.36 544.2C566.36 546.51 567.4 549.15 570.21 549.15C571.27 549.15 572.85 548.36 573.54 547.94L573.54 548.47L573.6 549L577.23 549L577.23 548.43L575.63 548.43L575.63 533.56L575.6 532.96L571.97 532.96L571.97 533.56L573.54 533.56L573.54 539.5C572.85 539.23 572.15 538.97 571.18 538.97C567.93 538.97 566.36 541.43 566.36 544.2ZM568.45 544.29C568.45 541.12 570.02 539.85 572.08 539.85C572.68 539.85 573.16 539.96 573.54 540.13L573.54 547.28C573.05 547.59 571.97 548.14 570.92 548.14C569.31 548.14 568.45 546.58 568.45 544.29ZM578.57 543.98C578.57 546.8 580.62 549.15 583.66 549.15C586.71 549.15 588.78 546.82 588.78 543.98C588.78 541.1 586.76 539.06 583.66 539.06C580.6 539.06 578.57 541.15 578.57 543.98ZM580.71 543.98C580.71 541.67 581.63 539.69 583.66 539.69C585.72 539.69 586.65 541.63 586.65 544.03C586.65 546.23 585.72 548.56 583.66 548.56C581.63 548.56 580.71 546.18 580.71 543.98ZM597.23 544.2C597.23 547.13 599.19 549.15 602.25 549.15C603.85 549.15 604.75 548.82 606.36 548.03L606.1 547.5C605.08 547.94 604.23 548.21 602.95 548.21C601.01 548.21 599.47 546.67 599.32 544.2L605.08 544.2L607.13 544.09C607.13 540.79 605.26 539.06 602.42 539.06C599.58 539.06 597.23 541.21 597.23 544.2ZM599.32 543.61C599.39 540.68 601.04 539.69 602.42 539.69C604.56 539.69 605 541.7 605 543.61ZM608.69 539.96L610.28 539.96L610.28 548.43L609.26 548.43L609.26 549L613.97 549L613.97 548.43L612.37 548.43L612.37 540.82C613.27 540.29 614.02 539.98 614.65 539.98C616.22 539.98 617.14 540.97 617.14 543.06L617.14 548.43L616.15 548.43L616.15 549L620.86 549L620.86 548.43L619.25 548.43L619.25 540.82C620.15 540.29 620.88 539.98 621.52 539.98C623.08 539.98 624.03 540.97 624.03 543.06L624.03 548.43L623.01 548.43L623.01 549L627.74 549L627.74 548.43L626.12 548.43L626.12 542.95C626.12 540.33 624.8 538.97 622.24 538.97C621.32 538.97 619.96 539.61 618.64 540.4C618 539.47 616.9 538.97 615.36 538.97C614.61 538.97 613.6 539.34 612.37 540.09L612.37 539.96L612.32 539.34L608.69 539.34ZM636.15 548.47C638.06 549.04 639.21 549.18 641.08 549.18C643.06 549.18 646.2 548.25 646.2 545.04C646.2 540.71 638.39 540.35 638.39 536.77C638.39 534.96 639.73 534 641.19 534C642.24 534 642.99 534.06 643.96 534.37L643.96 536.59L644.53 536.7L645.12 533.56L644.53 533.45L644.44 533.86C643.25 533.53 642.35 533.34 641.01 533.34C638.39 533.34 636.32 534.81 636.32 537.21C636.32 541.74 644.07 541.81 644.07 545.37C644.07 547.35 642.48 548.56 640.55 548.56C639.32 548.56 638.24 548.41 637.23 548.1L637.23 545.96L636.68 545.85ZM646.99 534.11L648.69 534.11L654.32 549.31L656.34 548.58L655.97 547.57L660.94 534.11L661.95 534.11L661.95 533.56L658.41 533.56L658.41 534.11L660.28 534.11L655.64 546.65L651 534.11L652.05 534.11L652.05 533.56L646.99 533.56ZM663.19 541.19C663.19 545.63 665.83 549.22 671.63 549.22C673.61 549.22 675.04 548.96 676.87 548.52L676.87 541.3L677.93 541.3L677.93 540.73L672.87 540.73L672.87 541.3L674.67 541.3L674.67 548.25C674.03 548.41 673.06 548.52 672.21 548.52C667.87 548.52 665.39 545.39 665.39 541.21C665.39 537.14 667.61 533.97 671.79 533.97C672.84 533.97 673.7 534 675.2 534.37L675.2 536.59L675.79 536.7L676.39 533.56L675.79 533.45L675.7 533.86C674.16 533.49 673.04 533.34 671.81 533.34C666.31 533.34 663.19 536.75 663.19 541.19ZM680.19 548.25L680.68 548.47C680.98 548.47 681.97 548.58 681.97 549.33C681.97 550.3 680.72 551.84 680.3 552.32L680.7 552.7C681.86 551.51 683.47 549.62 683.47 548.56C683.47 547.33 681.12 546.93 680.79 546.93ZM691.83 539.96L693.41 539.96L693.41 554.87L693.44 555.47L697.11 555.47L697.11 554.87L695.5 554.87L695.5 549C696.03 549.09 696.27 549.11 696.8 549.11C700.39 549.11 702.65 547.22 702.65 543.92C702.65 541.45 701.86 538.97 698.54 538.97C697.84 538.97 696.82 539.34 695.5 540.09L695.5 539.96L695.46 539.34L691.83 539.34ZM695.5 548.41L695.5 540.82C696.14 540.44 696.93 539.98 697.92 539.98C699.49 539.98 700.54 541.04 700.54 544.07C700.54 547.24 698.72 548.52 697 548.52C696.41 548.52 696.1 548.49 695.5 548.41ZM704.55 546.87C704.55 548.14 705.62 549.15 707.43 549.15C708.99 549.15 710.24 548.52 711.17 547.99L711.17 548.47L711.19 549L714.86 549L714.86 548.43L713.26 548.43L713.26 542.95C713.26 540.33 711.92 538.97 709.36 538.97C708.35 538.97 707.03 539.58 705.71 540.33L706 540.84C706.81 540.42 707.74 539.98 708.66 539.98C710.22 539.98 711.17 540.97 711.17 543.06L711.17 543.61C707.43 543.61 704.55 544.58 704.55 546.87ZM706.64 546.65C706.64 544.71 709.03 544.2 711.17 544.2L711.17 547.33C710.64 547.64 709.45 548.19 708.4 548.19C706.97 548.19 706.64 547.28 706.64 546.65ZM716.01 539.96L717.59 539.96L717.59 548.43L716.58 548.43L716.58 549L721.29 549L721.29 548.43L719.68 548.43L719.68 540.82C720.32 540.44 720.76 540.44 721.07 540.44C721.86 540.44 723.09 540.93 723.64 541.15L724.43 539.39L723.95 539.17C723.62 539.01 723.2 538.97 722.89 538.97C722.08 538.97 721.02 539.34 719.68 540.09L719.68 539.96L719.64 539.34L716.01 539.34ZM726.17 546.87C726.17 548.14 727.25 549.15 729.05 549.15C730.62 549.15 731.87 548.52 732.79 547.99L732.79 548.47L732.82 549L736.49 549L736.49 548.43L734.88 548.43L734.88 542.95C734.88 540.33 733.54 538.97 730.99 538.97C729.98 538.97 728.66 539.58 727.34 540.33L727.62 540.84C728.44 540.42 729.36 539.98 730.29 539.98C731.85 539.98 732.79 540.97 732.79 543.06L732.79 543.61C729.05 543.61 726.17 544.58 726.17 546.87ZM728.26 546.65C728.26 544.71 730.66 544.2 732.79 544.2L732.79 547.33C732.27 547.64 731.08 548.19 730.02 548.19C728.59 548.19 728.26 547.28 728.26 546.65ZM744.32 539.96L745.91 539.96L745.91 546.01C745.91 547.44 746.65 549 749.16 549L750.09 549L750.09 548.43C748.63 548.43 748 547.72 748 545.9L748 539.96L750.99 539.96L750.99 539.34L748 539.34L748 536.66L747.95 536.06L745.91 536.17L745.91 539.34L744.32 539.34ZM752.81 544.2C752.81 547.13 754.77 549.15 757.83 549.15C759.44 549.15 760.34 548.82 761.94 548.03L761.68 547.5C760.67 547.94 759.81 548.21 758.53 548.21C756.6 548.21 755.06 546.67 754.9 544.2L760.67 544.2L762.71 544.09C762.71 540.79 760.84 539.06 758.01 539.06C755.17 539.06 752.81 541.21 752.81 544.2ZM754.9 543.61C754.97 540.68 756.62 539.69 758.01 539.69C760.14 539.69 760.58 541.7 760.58 543.61ZM764.85 548.47C766.34 548.96 767.16 549.18 768.7 549.18C771.1 549.18 772.55 548.14 772.55 546.23C772.55 542.93 766.89 543.37 766.89 541.08C766.89 540.18 767.62 539.65 768.7 539.65C769.4 539.65 770.13 539.69 770.94 539.91L770.94 542.16L771.54 542.27L772.11 539.39C770.72 539.06 769.89 538.97 768.5 538.97C766.63 538.97 765.13 539.83 765.13 541.59C765.13 544.89 770.57 543.98 770.57 546.8C770.57 548.03 769.78 548.56 768.7 548.56C767.69 548.56 766.83 548.41 765.97 548.1L765.97 545.96L765.38 545.85ZM774.24 539.96L775.83 539.96L775.83 546.01C775.83 547.44 776.57 549 779.08 549L780.01 549L780.01 548.43C778.55 548.43 777.92 547.72 777.92 545.9L777.92 539.96L780.91 539.96L780.91 539.34L777.92 539.34L777.92 536.66L777.87 536.06L775.83 536.17L775.83 539.34L774.24 539.34ZM782.73 546.87C782.73 548.14 783.81 549.15 785.62 549.15C787.18 549.15 788.43 548.52 789.36 547.99L789.36 548.47L789.38 549L793.05 549L793.05 548.43L791.45 548.43L791.45 542.95C791.45 540.33 790.1 538.97 787.55 538.97C786.54 538.97 785.22 539.58 783.9 540.33L784.19 540.84C785 540.42 785.92 539.98 786.85 539.98C788.41 539.98 789.36 540.97 789.36 543.06L789.36 543.61C785.62 543.61 782.73 544.58 782.73 546.87ZM784.82 546.65C784.82 544.71 787.22 544.2 789.36 544.2L789.36 547.33C788.83 547.64 787.64 548.19 786.58 548.19C785.15 548.19 784.82 547.28 784.82 546.65ZM794.2 539.96L795.78 539.96L795.78 548.43L794.77 548.43L794.77 549L799.48 549L799.48 548.43L797.87 548.43L797.87 540.82C798.51 540.44 798.95 540.44 799.26 540.44C800.05 540.44 801.28 540.93 801.83 541.15L802.62 539.39L802.14 539.17C801.81 539.01 801.39 538.97 801.08 538.97C800.27 538.97 799.21 539.34 797.87 540.09L797.87 539.96L797.83 539.34L794.2 539.34ZM811.05 546.87C811.05 548.14 812.13 549.15 813.93 549.15C815.49 549.15 816.75 548.52 817.67 547.99L817.67 548.47L817.69 549L821.37 549L821.37 548.43L819.76 548.43L819.76 542.95C819.76 540.33 818.42 538.97 815.87 538.97C814.85 538.97 813.53 539.58 812.21 540.33L812.5 540.84C813.31 540.42 814.24 539.98 815.16 539.98C816.72 539.98 817.67 540.97 817.67 543.06L817.67 543.61C813.93 543.61 811.05 544.58 811.05 546.87ZM813.14 546.65C813.14 544.71 815.54 544.2 817.67 544.2L817.67 547.33C817.14 547.64 815.95 548.19 814.9 548.19C813.47 548.19 813.14 547.28 813.14 546.65ZM829.2 539.96L830.78 539.96L830.78 548.43L829.77 548.43L829.77 549L834.52 549L834.52 548.43L832.87 548.43L832.87 539.96L835.86 539.96L835.86 539.34L832.87 539.34C832.87 536.04 832.87 535.6 832.94 534.96C833 534.39 833.31 534.26 833.73 534.26C834.3 534.26 835.18 534.61 835.71 534.83L836.5 533.07L836.02 532.85C835.6 532.76 835.18 532.76 834.96 532.76C833.42 532.76 832.7 533.49 832.17 534.08C831.57 534.79 831.27 535.54 831.05 536.5C830.83 537.56 830.78 538.77 830.78 539.34L829.2 539.34ZM837.49 539.96L839.08 539.96L839.08 546.16C839.08 547.59 839.74 549.15 842.09 549.15C843.65 549.15 844.91 548.52 845.83 547.99L845.83 548.47L845.92 549L849.55 549L849.55 548.43L847.94 548.43L847.94 539.96L847.9 539.34L844.27 539.34L844.27 539.96L845.83 539.96L845.83 547.33C845.26 547.66 844 548.19 843.08 548.19C841.74 548.19 841.17 547.5 841.17 545.68L841.17 539.96L841.12 539.34L837.49 539.34ZM850.69 539.96L852.28 539.96L852.28 548.43L851.26 548.43L851.26 549L855.97 549L855.97 548.43L854.37 548.43L854.37 540.82C855.27 540.29 856.02 539.98 856.65 539.98C858.22 539.98 859.14 540.97 859.14 543.06L859.14 548.43L858.15 548.43L858.15 549L862.86 549L862.86 548.43L861.25 548.43L861.25 542.95C861.25 540.33 859.91 538.97 857.36 538.97C856.61 538.97 855.6 539.34 854.37 540.09L854.37 539.96L854.32 539.34L850.69 539.34ZM864.2 544.2C864.2 547.13 866.4 549.15 869.22 549.15C870.82 549.15 871.72 548.82 873.33 548.03L873.07 547.5C872.05 547.94 871.2 548.21 869.92 548.21C867.85 548.21 866.29 546.49 866.29 543.81C866.29 540.75 868.07 539.69 869.61 539.69C870.51 539.69 871.2 539.74 871.94 539.91L871.94 542.16L872.54 542.27L873.09 539.39C871.7 539.08 870.84 538.97 869.46 538.97C866.47 538.97 864.2 541.21 864.2 544.2ZM875.09 539.96L876.67 539.96L876.67 548.43L875.66 548.43L875.66 549L880.37 549L880.37 548.43L878.76 548.43L878.76 539.96L878.72 539.34L875.09 539.34ZM876.63 536.5C876.63 537.1 877.11 537.6 877.71 537.6C878.3 537.6 878.81 537.1 878.81 536.5C878.81 535.91 878.3 535.43 877.71 535.43C877.11 535.43 876.63 535.91 876.63 536.5ZM881.71 543.98C881.71 546.8 883.76 549.15 886.79 549.15C889.85 549.15 891.92 546.82 891.92 543.98C891.92 541.1 889.9 539.06 886.79 539.06C883.74 539.06 881.71 541.15 881.71 543.98ZM883.85 543.98C883.85 541.67 884.77 539.69 886.79 539.69C888.86 539.69 889.79 541.63 889.79 544.03C889.79 546.23 888.86 548.56 886.79 548.56C884.77 548.56 883.85 546.18 883.85 543.98ZM893.48 539.96L895.07 539.96L895.07 548.43L894.05 548.43L894.05 549L898.76 549L898.76 548.43L897.16 548.43L897.16 540.82C898.06 540.29 898.81 539.98 899.44 539.98C901.01 539.98 901.93 540.97 901.93 543.06L901.93 548.43L900.94 548.43L900.94 549L905.65 549L905.65 548.43L904.04 548.43L904.04 542.95C904.04 540.33 902.7 538.97 900.15 538.97C899.4 538.97 898.39 539.34 897.16 540.09L897.16 539.96L897.11 539.34L893.48 539.34ZM906.99 546.87C906.99 548.14 908.07 549.15 909.87 549.15C911.43 549.15 912.69 548.52 913.61 547.99L913.61 548.47L913.63 549L917.31 549L917.31 548.43L915.7 548.43L915.7 542.95C915.7 540.33 914.36 538.97 911.81 538.97C910.8 538.97 909.48 539.58 908.16 540.33L908.44 540.84C909.26 540.42 910.18 539.98 911.1 539.98C912.67 539.98 913.61 540.97 913.61 543.06L913.61 543.61C909.87 543.61 906.99 544.58 906.99 546.87ZM909.08 546.65C909.08 544.71 911.48 544.2 913.61 544.2L913.61 547.33C913.08 547.64 911.9 548.19 910.84 548.19C909.41 548.19 909.08 547.28 909.08 546.65ZM918.45 533.56L920.04 533.56L920.04 548.43L919.02 548.43L919.02 549L923.73 549L923.73 548.43L922.13 548.43L922.13 533.56L922.08 532.96L918.45 532.96ZM924.88 539.96L926.46 539.96L926.46 548.43L925.45 548.43L925.45 549L930.16 549L930.16 548.43L928.55 548.43L928.55 539.96L928.51 539.34L924.88 539.34ZM926.42 536.5C926.42 537.1 926.9 537.6 927.49 537.6C928.09 537.6 928.59 537.1 928.59 536.5C928.59 535.91 928.09 535.43 927.49 535.43C926.9 535.43 926.42 535.91 926.42 536.5ZM931.65 544.2C931.65 546.51 932.69 549.15 935.5 549.15C936.56 549.15 938.14 548.36 938.82 547.94L938.82 548.47L938.89 549L942.52 549L942.52 548.43L940.91 548.43L940.91 533.56L940.89 532.96L937.26 532.96L937.26 533.56L938.82 533.56L938.82 539.5C938.14 539.23 937.44 538.97 936.47 538.97C933.21 538.97 931.65 541.43 931.65 544.2ZM933.74 544.29C933.74 541.12 935.3 539.85 937.37 539.85C937.97 539.85 938.45 539.96 938.82 540.13L938.82 547.28C938.34 547.59 937.26 548.14 936.21 548.14C934.6 548.14 933.74 546.58 933.74 544.29ZM943.86 546.87C943.86 548.14 944.94 549.15 946.74 549.15C948.31 549.15 949.56 548.52 950.48 547.99L950.48 548.47L950.51 549L954.18 549L954.18 548.43L952.57 548.43L952.57 542.95C952.57 540.33 951.23 538.97 948.68 538.97C947.67 538.97 946.35 539.58 945.03 540.33L945.31 540.84C946.13 540.42 947.05 539.98 947.98 539.98C949.54 539.98 950.48 540.97 950.48 543.06L950.48 543.61C946.74 543.61 943.86 544.58 943.86 546.87ZM945.95 546.65C945.95 544.71 948.35 544.2 950.48 544.2L950.48 547.33C949.96 547.64 948.77 548.19 947.71 548.19C946.28 548.19 945.95 547.28 945.95 546.65ZM955.68 544.2C955.68 546.51 956.71 549.15 959.53 549.15C960.58 549.15 962.17 548.36 962.85 547.94L962.85 548.47L962.91 549L966.54 549L966.54 548.43L964.94 548.43L964.94 533.56L964.92 532.96L961.29 532.96L961.29 533.56L962.85 533.56L962.85 539.5C962.17 539.23 961.46 538.97 960.49 538.97C957.24 538.97 955.68 541.43 955.68 544.2ZM957.77 544.29C957.77 541.12 959.33 539.85 961.4 539.85C961.99 539.85 962.47 539.96 962.85 540.13L962.85 547.28C962.36 547.59 961.29 548.14 960.23 548.14C958.62 548.14 957.77 546.58 957.77 544.29ZM967.89 544.2C967.89 547.13 969.84 549.15 972.9 549.15C974.51 549.15 975.41 548.82 977.02 548.03L976.75 547.5C975.74 547.94 974.88 548.21 973.61 548.21C971.67 548.21 970.13 546.67 969.98 544.2L975.74 544.2L977.79 544.09C977.79 540.79 975.92 539.06 973.08 539.06C970.24 539.06 967.89 541.21 967.89 544.2ZM969.98 543.61C970.04 540.68 971.69 539.69 973.08 539.69C975.21 539.69 975.65 541.7 975.65 543.61ZM979.77 548.08C979.77 548.67 980.25 549.15 980.84 549.15C981.44 549.15 981.94 548.67 981.94 548.08C981.94 547.48 981.44 546.98 980.84 546.98C980.25 546.98 979.77 547.48 979.77 548.08Z" />
	<path id="Hello World!" fill="#ffffff" aria-label="Hello World!"  d="M725.23 514L716.98 514L716.98 470L725.23 470L725.23 487.99L732.11 487.99L732.11 470L740.36 470L740.36 514L732.11 514L732.11 495.25L725.23 495.25L725.23 514ZM758.95 501.19L767.14 501.19Q767.2 501.51 767.2 502.67Q767.25 503.82 767.2 504.76Q766.98 509.99 764.34 512.29Q761.7 514.55 755.98 514.55Q749.88 514.55 747.23 512.24Q744.65 509.93 744.32 504.76Q744.26 503.5 744.21 501.46Q744.15 499.43 744.15 497.23Q744.15 494.97 744.21 493.1Q744.26 491.23 744.32 490.35Q744.7 485.01 747.4 482.76Q750.1 480.45 755.87 480.45Q761.7 480.45 764.34 482.7Q766.98 484.9 767.2 490.02Q767.25 490.68 767.25 492.22Q767.25 493.7 767.25 495.52Q767.25 497.33 767.14 498.88L752.57 498.88Q752.57 500.47 752.63 502.12Q752.68 503.77 752.73 505.69Q752.79 507.13 753.5 507.79Q754.27 508.39 755.98 508.39Q757.57 508.39 758.23 507.79Q758.89 507.13 758.95 505.64Q759 504.81 759 503.82Q759.06 502.78 758.95 501.19ZM755.87 486.61Q754.16 486.61 753.45 487.21Q752.79 487.76 752.73 489.08Q752.68 490.19 752.63 491.23Q752.63 492.27 752.63 493.21L759 493.21Q759 491.78 759 490.63Q759 489.47 758.95 489.08Q758.89 487.76 758.18 487.21Q757.46 486.61 755.87 486.61ZM779.36 514L771.11 514L771.11 470L779.36 470L779.36 514ZM792 514L783.75 514L783.75 470L792 470L792 514ZM808.39 514.55Q804.21 514.55 801.68 513.45Q799.15 512.35 797.94 509.93Q796.74 507.51 796.51 503.5Q796.46 502.45 796.4 500.86Q796.4 499.2 796.4 497.44Q796.4 495.63 796.4 494.04Q796.46 492.44 796.51 491.45Q796.79 487.38 797.94 485.01Q799.15 482.6 801.68 481.55Q804.21 480.45 808.39 480.45Q812.68 480.45 815.16 481.61Q817.69 482.7 818.85 485.13Q820 487.55 820.22 491.45Q820.27 492.5 820.27 494.14Q820.33 495.74 820.33 497.56Q820.33 499.31 820.27 500.91Q820.27 502.5 820.22 503.5Q820 507.51 818.79 509.93Q817.63 512.35 815.16 513.45Q812.68 514.55 808.39 514.55ZM808.39 508.39Q810.32 508.39 811.09 507.68Q811.86 506.96 811.91 505.58Q812.02 502.34 812.02 499.81Q812.08 497.23 812.02 494.75Q812.02 492.27 811.91 489.36Q811.86 488.04 811.09 487.32Q810.32 486.61 808.39 486.61Q806.52 486.61 805.64 487.38Q804.82 488.15 804.76 489.36Q804.65 492.71 804.65 497Q804.65 501.24 804.82 505.58Q804.88 506.96 805.7 507.68Q806.52 508.39 808.39 508.39ZM854.48 514L839.91 514L835.73 470L844.03 470L845.46 490.13L846.29 506.74L848.88 506.74L848.76 490.13L852.62 470.27L864.27 470.27L868.13 490.13L868.01 506.74L870.6 506.74L871.42 490.13L872.86 470L881.16 470L876.98 514L862.4 514L860.37 501.74L859.71 477.26L857.18 477.26L856.52 501.74L854.48 514ZM895.35 514.55Q891.17 514.55 888.64 513.45Q886.11 512.35 884.9 509.93Q883.69 507.51 883.47 503.5Q883.41 502.45 883.36 500.86Q883.36 499.2 883.36 497.44Q883.36 495.63 883.36 494.04Q883.41 492.44 883.47 491.45Q883.75 487.38 884.9 485.01Q886.11 482.6 888.64 481.55Q891.17 480.45 895.35 480.45Q899.64 480.45 902.12 481.61Q904.64 482.7 905.8 485.13Q906.95 487.55 907.17 491.45Q907.23 492.5 907.23 494.14Q907.28 495.74 907.28 497.56Q907.28 499.31 907.23 500.91Q907.23 502.5 907.17 503.5Q906.95 507.51 905.75 509.93Q904.59 512.35 902.12 513.45Q899.64 514.55 895.35 514.55ZM895.35 508.39Q897.27 508.39 898.04 507.68Q898.81 506.96 898.87 505.58Q898.98 502.34 898.98 499.81Q899.03 497.23 898.98 494.75Q898.98 492.27 898.87 489.36Q898.81 488.04 898.04 487.32Q897.27 486.61 895.35 486.61Q893.48 486.61 892.6 487.38Q891.77 488.15 891.72 489.36Q891.61 492.71 891.61 497Q891.61 501.24 891.77 505.58Q891.83 506.96 892.65 507.68Q893.48 508.39 895.35 508.39ZM919.61 514L911.13 514L911.13 481L919.61 481L919.61 485.13L921.09 485.13Q921.42 482.7 922.74 481.77Q924.06 480.78 926.15 480.78Q926.92 480.78 927.63 480.83Q928.35 480.89 928.74 480.94L928.74 487.21L926.26 487.21Q923.4 487.21 921.69 488.04Q920.04 488.81 919.61 490.79L919.61 514ZM939.74 514L931.49 514L931.49 470L939.74 470L939.74 514ZM959.53 484.57L959.53 470L967.95 470L967.95 514L959.53 514L959.53 510.43L958.32 510.43Q957.12 512.4 955.68 513.5Q954.25 514.55 951.5 514.55Q947.82 514.55 945.89 512.4Q943.97 510.26 943.69 505.25Q943.64 503.82 943.58 501.79Q943.53 499.7 943.53 497.44Q943.53 495.13 943.58 493.1Q943.64 491.06 943.69 489.75Q943.97 484.74 945.95 482.6Q947.99 480.45 951.62 480.45Q954.37 480.45 955.74 481.55Q957.17 482.6 958.38 484.57L959.53 484.57ZM954.97 508.56Q956.24 508.56 957.61 507.89Q958.99 507.24 959.53 506.19L959.53 488.81Q958.99 487.71 957.61 487.11Q956.24 486.44 954.97 486.44Q952.27 486.44 952.11 488.81Q951.89 492.99 951.89 497.5Q951.89 502.01 952.11 505.97Q952.22 507.29 952.82 507.95Q953.43 508.56 954.97 508.56ZM980.6 501.9L974.55 501.9L973.45 487.93L973.45 470L981.7 470L981.7 487.93L980.6 501.9ZM982.8 514L972.35 514L972.35 506.36L982.8 506.36L982.8 514Z" />
</svg>