<?xml version="1.0" encoding="UTF-8" standalone="no"?>
<!-- Created with Inkscape (http://www.inkscape.org/) -->

<svg
   width="5.2568898mm"
   height="4.273324mm"
   viewBox="0 0 5.2568898 4.273324"
   version="1.1"
   id="svg5"
   sodipodi:docname="twitter.svg"
   inkscape:version="1.1 (c68e22c387, 2021-05-23)"
   xmlns:inkscape="http://www.inkscape.org/namespaces/inkscape"
   xmlns:sodipodi="http://sodipodi.sourceforge.net/DTD/sodipodi-0.dtd"
   xmlns="http://www.w3.org/2000/svg"
   xmlns:svg="http://www.w3.org/2000/svg">
  <sodipodi:namedview
     id="namedview7"
     pagecolor="#ffffff"
     bordercolor="#666666"
     borderopacity="1.0"
     inkscape:pageshadow="2"
     inkscape:pageopacity="0.0"
     inkscape:pagecheckerboard="0"
     inkscape:document-units="mm"
     showgrid="false"
     inkscape:zoom="0.65638516"
     inkscape:cx="-271.18224"
     inkscape:cy="214.8129"
     inkscape:window-width="1313"
     inkscape:window-height="699"
     inkscape:window-x="53"
     inkscape:window-y="32"
     inkscape:window-maximized="1"
     inkscape:current-layer="layer1"
     inkscape:lockguides="true" />
  <defs
     id="defs2" />
  <g
     inkscape:label="Layer 1"
     inkscape:groupmode="layer"
     id="layer1"
     transform="translate(-145.30625,-134.10826)">
    <path
       d="m 150.56294,134.61517 c -0.1933,0.0857 -0.40097,0.14354 -0.61928,0.1697 0.22527,-0.13479 0.39378,-0.34692 0.47413,-0.59683 -0.21164,0.1257 -0.44325,0.21419 -0.68479,0.26161 -0.16246,-0.17344 -0.37759,-0.28839 -0.61206,-0.32702 -0.23445,-0.0386 -0.47511,0.001 -0.68458,0.11339 -0.2095,0.11216 -0.37608,0.29034 -0.47393,0.50688 -0.0978,0.21654 -0.12144,0.45933 -0.0672,0.69066 -0.42883,-0.0215 -0.84834,-0.13299 -1.23131,-0.32714 -0.38296,-0.19416 -0.72082,-0.46667 -0.99165,-0.79985 -0.0926,0.15974 -0.14586,0.34495 -0.14586,0.5422 -1e-4,0.17757 0.0436,0.35241 0.12731,0.50903 0.0837,0.15661 0.20472,0.29015 0.35238,0.38877 -0.17125,-0.005 -0.33873,-0.0517 -0.48848,-0.13497 v 0.0139 c -2e-5,0.24904 0.0861,0.49042 0.24382,0.68318 0.15769,0.19275 0.37722,0.32502 0.62133,0.37436 -0.15886,0.043 -0.32542,0.0493 -0.4871,0.0185 0.0689,0.21429 0.20304,0.40167 0.3837,0.53591 0.18067,0.13428 0.39879,0.20866 0.62384,0.21278 -0.38203,0.29991 -0.85384,0.4626 -1.33952,0.46189 -0.086,0 -0.172,-0.005 -0.25744,-0.0151 0.49299,0.31697 1.06688,0.48519 1.65298,0.48456 1.98404,0 3.06867,-1.64328 3.06867,-3.06845 0,-0.0463 -10e-4,-0.0931 -0.003,-0.13937 0.21095,-0.15257 0.39306,-0.3415 0.53779,-0.55794 l 4.5e-4,-7e-4 z"
       fill="#010101"
       id="path870"
       style="stroke-width:0.264583" />
  </g>
</svg>
